<svg width="2378" height="2235" viewBox="0 0 2378 2235" fill="none" xmlns="http://www.w3.org/2000/svg">
<path d="M1079.42 602.497V1463.5H977.163V1043.98H796.478V1463.5H694.986V602.497H796.478V993.196L847.992 941.638H977.163V602.497H1079.42Z" fill="#FDFDFD"/>
<path d="M1529 602.497V704.843H1379.84V1463.5H1278.35V755.631L1329.1 704.843H1129.19V602.497H1529Z" fill="#FDFDFD"/>
<path d="M1683.99 1463.5H1582.49V602.497H1683.99V1463.5Z" fill="#FDFDFD"/>
<path d="M904.978 64.2793C944.805 51.1241 986.695 62.6448 1019.36 76.542C1054.23 91.3804 1091.34 114.515 1127.92 140.997C1183.36 181.143 1242.34 232.508 1297.35 284.23C1323.51 243.286 1351.11 204.324 1378.74 172.26C1399.37 148.314 1421.71 126.224 1445.14 110.057C1467.43 94.6739 1496.93 80.3587 1530.47 82.25L1532.07 82.3525L1533.71 82.4834C1568.05 85.4831 1593.75 104.794 1611.33 125.335C1628.93 145.898 1642.1 171.71 1652.35 197.729C1669.48 241.2 1682.03 294.624 1691.4 348.772C1781.36 388.206 1843.8 451.427 1884.11 505.528C1906.73 535.888 1922.87 564.007 1933.44 584.731C1933.87 585.588 1934.3 586.433 1934.72 587.265L1958.65 589.853C1986.28 548.116 2040.33 531.881 2086.34 548.795L2087.59 549.264L2088.88 549.766C2143.25 571.329 2170.34 632.676 2149.4 687.482V687.483C2145.78 696.96 2140.94 705.637 2135.14 713.398C2141.04 769.071 2128.02 836.774 2098.76 905.618C2067.99 978.01 2017.4 1056.43 1943.24 1132.07L2163.68 1316.21L2251.94 1389.93L2140.01 1416.3L1918.03 1468.6L2007.24 1623.31L2064.69 1722.93L1950.52 1709.11L1724.98 1681.82L1755.72 1857.36L1775.56 1970.64L1673.04 1918.54L1470.28 1815.51L1438.69 1990.88L1418.3 2104.06L1339.99 2019.84L1183.98 1852.06L1093.42 2007.22L1035.45 2106.55L990.772 2000.58L902.085 1790.22L764.36 1903.47L675.531 1976.5L670.398 1861.62L660.318 1636.04L493.487 1695.29L385.119 1733.78L419.35 1623.99L486.695 1407.99L309.527 1406.54L194.531 1405.6L264.28 1314.17L403.358 1131.86L235.604 1068.21L128.082 1027.42L225.229 965.879L418.135 843.673L282.593 726.045L195.739 650.671L308.151 626.412L530.23 578.486L444.035 422.513L388.411 321.86L502.308 337.753L786.429 377.397C789.477 319.125 795.292 263.348 805.383 216.396C812.238 184.501 821.68 153.653 835.398 128.091C848.741 103.229 870.32 75.727 904.978 64.2793Z" stroke="#FDFDFD" stroke-width="115" stroke-miterlimit="2.5593"/>
</svg>
