<svg width="7571" height="2235" viewBox="0 0 7571 2235" fill="none" xmlns="http://www.w3.org/2000/svg">
<path d="M1495.25 538.203C1537.67 521.041 1588.24 547.127 1608.2 596.469L1665.78 738.782C1685.74 788.124 1667.53 842.035 1625.11 859.197C1582.68 876.359 1532.11 850.273 1512.15 800.932L1502.87 777.998L1538.54 686.291L1450.23 645.679C1437.96 600.185 1456.51 553.874 1495.25 538.203Z" fill="#FDFDFD"/>
<path d="M3837.87 603.342C3868.46 603.342 3892.5 627.361 3892.5 657.931L3892.49 997.072C3892.12 1026.25 3868.22 1050.97 3837.87 1050.97H3545.05L3616.07 978.913V603.342H3837.87Z" fill="#FDFDFD"/>
<path d="M6492.88 603.342C6523.47 603.342 6547.51 627.361 6547.51 657.931V996.382L6547.51 997.072C6547.14 1026.25 6523.23 1050.97 6492.88 1050.97L6311.91 1050.97C6282.71 1050.58 6257.97 1025.63 6257.97 996.382V657.931C6257.97 627.6 6282.71 603.717 6311.91 603.346L6492.88 603.342Z" fill="#FDFDFD"/>
<path fill-rule="evenodd" clip-rule="evenodd" d="M887.347 9.68056C947.706 -10.2563 1006.18 8.27338 1042.27 23.6317C1082.8 40.8725 1123.87 66.7815 1162.04 94.4247C1203.28 124.283 1245.98 159.75 1287.38 196.698C1303.1 174.638 1319.25 153.679 1335.58 134.724C1357.85 108.885 1383.83 82.7801 1412.88 62.7313C1440.15 43.9112 1482.95 21.561 1535.34 24.9149L1536.58 24.9989L1537.88 25.0976C1592.77 29.4619 1631.64 60.1638 1655.42 87.9423C1678.86 115.33 1694.85 147.708 1706.25 176.649C1722.02 216.661 1733.9 262.967 1743.04 309.505C1755.32 315.83 1767.09 322.533 1778.36 329.532H2879.15V378.62C2929.01 347.52 2987.83 329.532 3050.72 329.532H3841.14C3940.72 329.532 4030.11 374.635 4089.87 445.483C4149.62 374.635 4239.02 329.532 4338.59 329.532H4828.46L4793.26 446.469C4853.02 375.053 4942.78 329.532 5042.81 329.532H6138.85V378.62C6188.71 347.52 6247.53 329.532 6310.41 329.532H6496.16C6595.65 329.532 6684.97 374.557 6744.73 445.301C6804.48 374.557 6893.81 329.532 6993.3 329.532H7483.16L7394.11 625.404H7526.17V998.565C7526.17 1060.88 7508.49 1119.17 7477.91 1168.69H7570.97L7526.49 1316.58H7526.6V1794.26H7239.74C7198.44 1794.26 7159.67 1783.16 7126.28 1763.78V1794.26H6797.04V1765.29C6764.24 1783.74 6726.43 1794.26 6686.21 1794.26H6609.81C6568.51 1794.26 6529.75 1783.16 6496.35 1763.78V1794.26H5738.1V1772.27C5708.57 1786.36 5675.54 1794.26 5640.71 1794.26H2619.74C2578.44 1794.26 2539.67 1783.16 2506.28 1763.78V1794.26H1803.45L1852.44 2074L1513.57 1901.8L1454.9 2227.43L1195.01 1947.92L1027.54 2234.85L879.456 1883.6L623.626 2093.96L606.747 1716.23L296.397 1826.45L409.139 1464.86L79.4688 1462.16L311.29 1158.27L0.566406 1040.39L322.49 836.452L71.6016 618.723L442.893 538.598L282.864 249.019L733.874 311.95C737.409 273.895 742.467 237.364 749.57 204.313C756.969 169.886 767.817 133.173 785.137 100.9C801.705 70.0288 832.665 27.7423 887.347 9.68056ZM923.012 118.879C1000.19 93.3855 1173.62 242.061 1309.12 375.35C1380.94 252.488 1466.16 135.283 1527.96 139.707C1586.98 143.932 1620.68 262.89 1639.87 390.293C1826.81 455.048 1895.93 640.906 1895.93 640.906L1992.93 651.398C1994.8 650.634 1996.64 649.947 1998.46 649.335C1998.39 643.27 1999.44 637.091 2001.74 631.081C2011.51 605.509 2041.5 593.212 2067.07 602.979C2092.64 612.747 2105.45 641.395 2095.69 666.967C2091.26 678.566 2082.94 687.54 2072.79 692.972C2098.73 778.872 2046.97 966.871 1856.83 1134.82L2126.82 1360.34L1829.6 1430.37L1957.43 1652.03L1654.98 1615.43L1699.08 1867.28L1427.4 1729.23L1382.1 1980.69L1173.35 1756.19L1043.76 1978.24L925.117 1696.84L727.841 1859.05L714.293 1555.85L474.243 1641.11L564.655 1351.13L309.997 1349.05L495.831 1105.44L256 1014.45L514.185 850.895L320.28 682.619L617.971 618.377L494.361 394.702L841.61 443.155C844.913 283.719 864.477 138.213 923.012 118.879ZM2341.65 1369.88H2199.77V1297.3H2483.54V1369.88H2377.67V1665.66H2305.64V1405.9L2341.65 1369.88ZM2521.51 1395.53C2521.51 1341.5 2565.71 1297.3 2619.74 1297.3H2778L2756.17 1369.88H2620.83C2606.1 1369.88 2593.55 1381.88 2593.54 1397.16V1481.75L2630.11 1445.19H2778V1517.77H2593.54V1566.34C2593.54 1581.07 2606.1 1593.62 2620.83 1593.62H2778V1665.66H2619.74C2565.71 1665.66 2521.51 1621.46 2521.51 1567.43V1395.53ZM2830.08 1395.53C2830.08 1341.5 2874.28 1297.3 2928.31 1297.3H3081.66L3059.83 1369.88H2929.4C2914.66 1369.88 2902.11 1381.88 2902.11 1397.16V1566.34C2902.11 1581.07 2914.66 1593.62 2929.4 1593.62H3081.66V1665.66H2928.31C2874.28 1665.66 2830.08 1621.46 2830.08 1567.43V1395.53ZM3197.36 1665.66H3125.32V1297.3H3197.36V1481.75L3233.92 1445.19H3325.6V1297.3H3398.18V1665.66H3325.6V1517.77H3197.36V1665.66ZM3521.92 1665.66H3449.88V1297.3H3521.92L3661.07 1526.5V1297.3H3733.66V1665.66H3661.07L3521.92 1436.46V1665.66ZM3857.66 1665.66H3785.63V1297.3H3857.66V1665.66ZM3909.27 1395.53C3909.27 1341.5 3953.47 1297.3 4007.5 1297.3H4160.85L4139.02 1369.88H4008.59C3993.86 1369.88 3981.3 1381.88 3981.3 1397.16V1566.34C3981.3 1581.07 3993.86 1593.62 4008.59 1593.62H4160.85V1665.66H4007.5C3953.47 1665.66 3909.27 1621.46 3909.27 1567.43V1395.53ZM4204.51 1395.53C4204.51 1341.5 4248.72 1297.3 4302.74 1297.3H4406.43C4460.46 1297.3 4504.66 1341.5 4504.66 1395.53V1665.66H4432.08V1554.88H4303.83L4325.66 1482.3H4432.08V1397.16C4432.08 1381.88 4420.07 1369.88 4404.79 1369.88H4303.83C4289.1 1369.88 4276.55 1381.88 4276.55 1397.16V1665.66H4204.51V1395.53ZM4654.48 1665.66C4600.45 1665.66 4556.25 1621.46 4556.25 1567.43V1297.3H4628.29V1566.34C4628.29 1581.07 4640.84 1593.62 4655.57 1593.62H4766.9L4788.73 1665.66H4654.48ZM5051.43 1665.66H4979.4V1297.3H5051.43V1665.66ZM5175.07 1665.66H5103.04V1297.3H5175.07L5314.23 1526.5V1297.3H5386.82V1665.66H5314.23L5175.07 1436.46V1665.66ZM5438.79 1395.53C5438.79 1341.5 5482.99 1297.3 5537.02 1297.3H5711.65L5689.82 1369.88H5538.11C5523.37 1369.88 5510.82 1381.88 5510.82 1397.16V1417.9C5510.82 1433.18 5523.37 1445.19 5538.11 1445.19H5640.71C5694.73 1445.19 5738.94 1489.39 5738.94 1543.42V1567.43C5738.94 1621.46 5694.73 1665.66 5640.71 1665.66H5438.79L5460.62 1593.62H5639.07C5654.35 1593.62 5666.35 1581.07 5666.35 1566.34V1545.06C5666.35 1529.78 5654.35 1517.77 5639.07 1517.77H5537.02C5482.99 1517.77 5438.79 1473.57 5438.79 1419.54V1395.53ZM5902.72 1369.88H5760.83V1297.3H6044.6V1369.88H5938.73V1665.66H5866.7V1405.9L5902.72 1369.88ZM6154.61 1665.66H6082.57V1297.3H6154.61V1665.66ZM6331.73 1369.88H6189.84V1297.3H6473.62V1369.88H6367.75V1665.66H6295.71V1405.9L6331.73 1369.88ZM6609.81 1665.66C6555.79 1665.66 6511.58 1621.46 6511.58 1567.43V1297.3H6583.62V1566.34L6583.63 1567.03C6584.01 1581.46 6596.4 1593.62 6610.9 1593.62H6684.58C6699.62 1593.62 6711.49 1581.46 6711.86 1567.03L6711.86 1566.34V1297.3H6784.44V1567.43C6784.44 1621.46 6740.24 1665.66 6686.21 1665.66H6609.81ZM6961.66 1369.88H6819.77V1297.3H7103.54V1369.88H6997.67V1665.66H6925.64V1405.9L6961.66 1369.88ZM7141.51 1395.53C7141.51 1341.5 7185.71 1297.3 7239.74 1297.3H7398L7376.17 1369.88H7240.83C7226.1 1369.88 7213.55 1381.88 7213.55 1397.16V1481.75L7250.11 1445.19H7398V1517.77H7213.55V1566.34C7213.55 1581.07 7226.1 1593.62 7240.83 1593.62H7398V1665.66H7239.74C7185.71 1665.66 7141.51 1621.46 7141.51 1567.43V1395.53ZM2348.46 1195.09H2204.24V458.135H2348.46V827.156L2421.67 754.007H2605.23V458.135H2750.55V1195.09H2605.23V899.214H2348.46V1195.09ZM2854.05 654.655C2854.05 546.991 2941.86 458.826 3049.45 458.139L3367.57 458.135L3323.87 603.342L3052.21 603.346C3023.01 603.717 2998.27 627.6 2998.27 657.931V827.156L3071.48 754.007H3367.57V899.214H2998.27V996.382C2998.27 1025.63 3023.01 1050.58 3052.21 1050.97L3367.57 1050.97V1195.09H3050.72C2942.55 1195.09 2854.05 1106.65 2854.05 998.565V654.655ZM3841.14 1195.09H3471.84V458.135L3842.41 458.139C3950 458.826 4037.81 546.991 4037.81 654.655L4037.81 999.831C4037.12 1107.34 3948.89 1195.09 3841.14 1195.09ZM4141.92 654.655C4141.92 546.569 4230.42 458.135 4338.59 458.135H4655.45L4611.74 603.342L4340.08 603.346C4310.88 603.717 4286.14 627.6 4286.14 657.931V996.382C4286.14 1025.63 4310.88 1050.58 4340.08 1050.97L4340.78 1050.97H4542.91C4573.5 1050.97 4597.54 1025.86 4597.54 996.382V899.214H4453.31L4409.61 754.007H4742.86V998.565C4742.86 1106.65 4654.36 1195.09 4546.19 1195.09H4338.59C4230.84 1195.09 4142.61 1107.34 4141.92 999.831L4141.92 654.655ZM4846.14 654.655C4846.14 546.991 4933.95 458.826 5041.55 458.139L5359.67 458.135L5315.97 603.342L5044.31 603.346C5015.11 603.717 4990.37 627.6 4990.37 657.931V827.156L5063.57 754.007H5359.67V899.214H4990.37V996.382C4990.37 1025.86 5015.5 1050.97 5045 1050.97H5359.67V1195.09H5042.81C4934.64 1195.09 4846.14 1106.65 4846.14 998.565V654.655ZM5608.16 1195.09H5463.94V458.135H5608.16V827.156L5681.37 754.007H5864.93V458.135H6010.25V1195.09H5864.93V899.214H5608.16V1195.09ZM6113.74 654.655C6113.74 546.569 6202.25 458.135 6310.41 458.135H6496.16C6604.33 458.135 6692.83 546.569 6692.83 654.655V998.565C6692.83 1106.65 6604.33 1195.09 6496.16 1195.09H6310.41C6202.25 1195.09 6113.74 1106.65 6113.74 998.565V654.655ZM6796.63 654.655C6796.63 546.991 6884.44 458.826 6992.03 458.139L7310.16 458.135L7266.45 603.342L6994.79 603.346C6965.59 603.717 6940.85 627.6 6940.85 657.931V996.382C6940.85 1025.63 6965.59 1050.58 6994.79 1050.97L7197.62 1050.97C7228.21 1050.97 7252.25 1025.86 7252.25 996.382V899.214H7108.02L7064.32 754.007H7397.56V998.565C7397.56 1106.65 7309.06 1195.09 7200.89 1195.09H6993.3C6885.13 1195.09 6796.63 1106.65 6796.63 998.565V654.655Z" fill="#FDFDFD"/>
<path fill-rule="evenodd" clip-rule="evenodd" d="M1495.25 538.203C1537.67 521.041 1588.24 547.127 1608.2 596.469L1665.78 738.782C1685.74 788.124 1667.53 842.035 1625.11 859.197C1582.68 876.359 1532.11 850.273 1512.15 800.932L1502.87 777.998L1538.54 686.291L1450.23 645.679C1437.96 600.185 1456.51 553.874 1495.25 538.203ZM3837.87 603.342C3868.46 603.342 3892.5 627.361 3892.5 657.931L3892.49 997.072C3892.12 1026.25 3868.22 1050.97 3837.87 1050.97H3545.05L3616.07 978.913V603.342H3837.87ZM6492.88 603.342C6523.47 603.342 6547.51 627.361 6547.51 657.931V996.382L6547.51 997.072C6547.14 1026.25 6523.23 1050.97 6492.88 1050.97L6311.91 1050.97C6282.71 1050.58 6257.97 1025.63 6257.97 996.382V657.931C6257.97 627.6 6282.71 603.717 6311.91 603.346L6492.88 603.342Z" fill="#FDFDFD"/>
<path d="M1495.65 538.202C1538.07 521.04 1588.65 547.127 1608.61 596.468L1666.18 738.781C1686.14 788.123 1667.93 842.034 1625.51 859.196C1583.09 876.359 1532.51 850.272 1512.55 800.931L1503.28 777.997L1538.95 686.29L1450.63 645.678C1438.37 600.184 1456.92 553.873 1495.65 538.202Z" fill="#FDFDFD"/>
</svg>
