<svg width="7571" height="2235" viewBox="0 0 7571 2235" fill="none" xmlns="http://www.w3.org/2000/svg">
<path d="M6537.5 1515.5L6515 540.998H2214.5V329.498H1728V1794.28H2172H2306L2354.5 1515.5H6537.5Z" fill="white"/>
<mask id="path-2-outside-1_1780_61" maskUnits="userSpaceOnUse" x="2070.77" y="329.135" width="5501" height="1466" fill="black">
<rect fill="white" x="2070.77" y="329.135" width="5501" height="1466"/>
<path d="M2483.54 1297.3V1369.88H2377.67V1665.66H2305.64V1405.9L2341.65 1369.88H2199.77V1297.3H2483.54Z"/>
<path d="M2630.11 1445.19H2778V1517.77H2593.54V1566.34C2593.54 1581.07 2606.1 1593.62 2620.83 1593.62H2778V1665.66H2619.74C2565.71 1665.66 2521.51 1621.46 2521.51 1567.43V1395.53C2521.51 1341.5 2565.71 1297.3 2619.74 1297.3H2778L2756.17 1369.88H2620.83C2606.1 1369.88 2593.54 1381.88 2593.54 1397.16V1481.75L2630.11 1445.19Z"/>
<path d="M2929.4 1593.62H3081.66V1665.66H2928.31C2874.28 1665.66 2830.08 1621.46 2830.08 1567.43V1395.53C2830.08 1341.5 2874.28 1297.3 2928.31 1297.3H3081.66L3059.83 1369.88H2929.4C2914.66 1369.88 2902.11 1381.88 2902.11 1397.16V1566.34C2902.11 1581.07 2914.66 1593.62 2929.4 1593.62Z"/>
<path d="M3398.18 1297.3V1665.66H3325.6V1517.77H3197.36V1665.66H3125.32V1297.3H3197.36V1481.75L3233.92 1445.19H3325.6V1297.3H3398.18Z"/>
<path d="M3733.65 1665.66H3661.07L3521.91 1436.46V1665.66H3449.88V1297.3H3521.91L3661.07 1526.5V1297.3H3733.65V1665.66Z"/>
<path d="M3857.66 1665.66H3785.63V1297.3H3857.66V1665.66Z"/>
<path d="M4008.59 1593.62H4160.85V1665.66H4007.5C3953.47 1665.66 3909.27 1621.46 3909.27 1567.43V1395.53C3909.27 1341.5 3953.47 1297.3 4007.5 1297.3H4160.85L4139.02 1369.88H4008.59C3993.85 1369.88 3981.3 1381.88 3981.3 1397.16V1566.34C3981.3 1581.07 3993.85 1593.62 4008.59 1593.62Z"/>
<path d="M4504.66 1395.53V1665.66H4432.08V1554.88H4303.83L4325.66 1482.3H4432.08V1397.16C4432.08 1381.88 4420.07 1369.88 4404.79 1369.88H4303.83C4289.1 1369.88 4276.55 1381.88 4276.55 1397.16V1665.66H4204.51V1395.53C4204.51 1341.5 4248.72 1297.3 4302.74 1297.3H4406.43C4460.46 1297.3 4504.66 1341.5 4504.66 1395.53Z"/>
<path d="M4788.73 1665.66H4654.48C4600.45 1665.66 4556.25 1621.46 4556.25 1567.43V1297.3H4628.28V1566.34C4628.28 1581.07 4640.84 1593.62 4655.57 1593.62H4766.9L4788.73 1665.66Z"/>
<path d="M5051.43 1665.66H4979.4V1297.3H5051.43V1665.66Z"/>
<path d="M5386.82 1665.66H5314.23L5175.07 1436.46V1665.66H5103.04V1297.3H5175.07L5314.23 1526.5V1297.3H5386.82V1665.66Z"/>
<path d="M5738.93 1543.42V1567.43C5738.93 1621.46 5694.73 1665.66 5640.7 1665.66H5438.79L5460.62 1593.62H5639.07C5654.35 1593.62 5666.35 1581.07 5666.35 1566.34V1545.06C5666.35 1529.78 5654.35 1517.77 5639.07 1517.77H5537.02C5482.99 1517.77 5438.79 1473.57 5438.79 1419.54V1395.53C5438.79 1341.5 5482.99 1297.3 5537.02 1297.3H5711.65L5689.82 1369.88H5538.11C5523.37 1369.88 5510.82 1381.88 5510.82 1397.16V1417.9C5510.82 1433.18 5523.37 1445.19 5538.11 1445.19H5640.7C5694.73 1445.19 5738.93 1489.39 5738.93 1543.42Z"/>
<path d="M6044.6 1297.3V1369.88H5938.73V1665.66H5866.7V1405.9L5902.72 1369.88H5760.83V1297.3H6044.6Z"/>
<path d="M6154.61 1665.66H6082.57V1297.3H6154.61V1665.66Z"/>
<path d="M6473.62 1297.3V1369.88H6367.75V1665.66H6295.71V1405.9L6331.73 1369.88H6189.84V1297.3H6473.62Z"/>
<path d="M6784.44 1297.3V1567.43C6784.44 1621.46 6740.24 1665.66 6686.21 1665.66H6609.81C6555.79 1665.66 6511.58 1621.46 6511.58 1567.43V1297.3H6583.62V1566.34C6583.62 1581.07 6596.17 1593.62 6610.9 1593.62H6684.58C6699.86 1593.62 6711.86 1581.07 6711.86 1566.34V1297.3H6784.44Z"/>
<path d="M7103.54 1297.3V1369.88H6997.67V1665.66H6925.64V1405.9L6961.65 1369.88H6819.77V1297.3H7103.54Z"/>
<path d="M7250.11 1445.19H7398V1517.77H7213.54V1566.34C7213.54 1581.07 7226.1 1593.62 7240.83 1593.62H7398V1665.66H7239.74C7185.71 1665.66 7141.51 1621.46 7141.51 1567.43V1395.53C7141.51 1341.5 7185.71 1297.3 7239.74 1297.3H7398L7376.17 1369.88H7240.83C7226.1 1369.88 7213.54 1381.88 7213.54 1397.16V1481.75L7250.11 1445.19Z"/>
<path d="M2750.55 458.135V1195.09H2605.23V899.213H2348.46V1195.09H2204.24V458.135H2348.46V827.156L2421.67 754.007H2605.23V458.135H2750.55Z"/>
<path d="M3071.47 754.007H3367.57V899.213H2998.27V996.382C2998.27 1025.86 3023.4 1050.97 3052.9 1050.97H3367.57V1195.09H3050.71C2942.55 1195.09 2854.04 1106.65 2854.04 998.565V654.655C2854.04 546.569 2942.55 458.135 3050.71 458.135H3367.57L3323.87 603.341H3052.9C3023.4 603.341 2998.27 627.36 2998.27 657.93V827.156L3071.47 754.007Z"/>
<path d="M3841.14 458.135C3949.31 458.135 4037.81 546.569 4037.81 654.655V998.565C4037.81 1106.65 3949.31 1195.09 3841.14 1195.09H3471.84V458.135H3841.14ZM3892.5 996.382V657.93C3892.5 627.36 3868.46 603.341 3837.87 603.341H3616.06V978.913L3545.05 1050.97H3837.87C3868.46 1050.97 3892.5 1025.86 3892.5 996.382Z"/>
<path d="M4742.86 754.007V998.565C4742.86 1106.65 4654.35 1195.09 4546.19 1195.09H4338.59C4230.42 1195.09 4141.92 1106.65 4141.92 998.565V654.655C4141.92 546.569 4230.42 458.135 4338.59 458.135H4655.45L4611.74 603.341H4340.77C4311.27 603.341 4286.14 627.36 4286.14 657.93V996.382C4286.14 1025.86 4311.27 1050.97 4340.77 1050.97H4542.91C4573.5 1050.97 4597.54 1025.86 4597.54 996.382V899.213H4453.31L4409.61 754.007H4742.86Z"/>
<path d="M5063.57 754.007H5359.67V899.213H4990.37V996.382C4990.37 1025.86 5015.5 1050.97 5045 1050.97H5359.67V1195.09H5042.81C4934.64 1195.09 4846.14 1106.65 4846.14 998.565V654.655C4846.14 546.569 4934.64 458.135 5042.81 458.135H5359.67L5315.97 603.341H5045C5015.5 603.341 4990.37 627.36 4990.37 657.93V827.156L5063.57 754.007Z"/>
<path d="M6010.24 458.135V1195.09H5864.93V899.213H5608.16V1195.09H5463.94V458.135H5608.16V827.156L5681.37 754.007H5864.93V458.135H6010.24Z"/>
<path d="M6496.16 458.135C6604.33 458.135 6692.83 546.569 6692.83 654.655V998.565C6692.83 1106.65 6604.33 1195.09 6496.16 1195.09H6310.41C6202.24 1195.09 6113.74 1106.65 6113.74 998.565V654.655C6113.74 546.569 6202.24 458.135 6310.41 458.135H6496.16ZM6547.51 996.382V657.93C6547.51 627.36 6523.47 603.341 6492.88 603.341H6312.6C6283.1 603.341 6257.97 627.36 6257.97 657.93V996.382C6257.97 1025.86 6283.1 1050.97 6312.6 1050.97H6492.88C6523.47 1050.97 6547.51 1025.86 6547.51 996.382Z"/>
<path d="M7397.56 754.007V998.565C7397.56 1106.65 7309.06 1195.09 7200.89 1195.09H6993.3C6885.13 1195.09 6796.63 1106.65 6796.63 998.565V654.655C6796.63 546.569 6885.13 458.135 6993.3 458.135H7310.15L7266.45 603.341H6995.48C6965.98 603.341 6940.85 627.36 6940.85 657.93V996.382C6940.85 1025.86 6965.98 1050.97 6995.48 1050.97H7197.61C7228.21 1050.97 7252.25 1025.86 7252.25 996.382V899.213H7108.02L7064.32 754.007H7397.56Z"/>
</mask>
<path d="M2483.54 1297.3V1369.88H2377.67V1665.66H2305.64V1405.9L2341.65 1369.88H2199.77V1297.3H2483.54Z" fill="#F9AE0B"/>
<path d="M2630.11 1445.19H2778V1517.77H2593.54V1566.34C2593.54 1581.07 2606.1 1593.62 2620.83 1593.62H2778V1665.66H2619.74C2565.71 1665.66 2521.51 1621.46 2521.51 1567.43V1395.53C2521.51 1341.5 2565.71 1297.3 2619.74 1297.3H2778L2756.17 1369.88H2620.83C2606.1 1369.88 2593.54 1381.88 2593.54 1397.16V1481.75L2630.11 1445.19Z" fill="#F9AE0B"/>
<path d="M2929.4 1593.62H3081.66V1665.66H2928.31C2874.28 1665.66 2830.08 1621.46 2830.08 1567.43V1395.53C2830.08 1341.5 2874.28 1297.3 2928.31 1297.3H3081.66L3059.83 1369.88H2929.4C2914.66 1369.88 2902.11 1381.88 2902.11 1397.16V1566.34C2902.11 1581.07 2914.66 1593.62 2929.4 1593.62Z" fill="#F9AE0B"/>
<path d="M3398.18 1297.3V1665.66H3325.6V1517.77H3197.36V1665.66H3125.32V1297.3H3197.36V1481.75L3233.92 1445.19H3325.6V1297.3H3398.18Z" fill="#F9AE0B"/>
<path d="M3733.65 1665.66H3661.07L3521.91 1436.46V1665.66H3449.88V1297.3H3521.91L3661.07 1526.5V1297.3H3733.65V1665.66Z" fill="#F9AE0B"/>
<path d="M3857.66 1665.66H3785.63V1297.3H3857.66V1665.66Z" fill="#F9AE0B"/>
<path d="M4008.59 1593.62H4160.85V1665.66H4007.5C3953.47 1665.66 3909.27 1621.46 3909.27 1567.43V1395.53C3909.27 1341.5 3953.47 1297.3 4007.5 1297.3H4160.85L4139.02 1369.88H4008.59C3993.85 1369.88 3981.3 1381.88 3981.3 1397.16V1566.34C3981.3 1581.07 3993.85 1593.62 4008.59 1593.62Z" fill="#F9AE0B"/>
<path d="M4504.66 1395.53V1665.66H4432.08V1554.88H4303.83L4325.66 1482.3H4432.08V1397.16C4432.08 1381.88 4420.07 1369.88 4404.79 1369.88H4303.83C4289.1 1369.88 4276.55 1381.88 4276.55 1397.16V1665.66H4204.51V1395.53C4204.51 1341.5 4248.72 1297.3 4302.74 1297.3H4406.43C4460.46 1297.3 4504.66 1341.5 4504.66 1395.53Z" fill="#F9AE0B"/>
<path d="M4788.73 1665.66H4654.48C4600.45 1665.66 4556.25 1621.46 4556.25 1567.43V1297.3H4628.28V1566.34C4628.28 1581.07 4640.84 1593.62 4655.57 1593.62H4766.9L4788.73 1665.66Z" fill="#F9AE0B"/>
<path d="M5051.43 1665.66H4979.4V1297.3H5051.43V1665.66Z" fill="#F9AE0B"/>
<path d="M5386.82 1665.66H5314.23L5175.07 1436.46V1665.66H5103.04V1297.3H5175.07L5314.23 1526.5V1297.3H5386.82V1665.66Z" fill="#F9AE0B"/>
<path d="M5738.93 1543.42V1567.43C5738.93 1621.46 5694.73 1665.66 5640.7 1665.66H5438.79L5460.62 1593.62H5639.07C5654.35 1593.62 5666.35 1581.07 5666.35 1566.34V1545.06C5666.35 1529.78 5654.35 1517.77 5639.07 1517.77H5537.02C5482.99 1517.77 5438.79 1473.57 5438.79 1419.54V1395.53C5438.79 1341.5 5482.99 1297.3 5537.02 1297.3H5711.65L5689.82 1369.88H5538.11C5523.37 1369.88 5510.82 1381.88 5510.82 1397.16V1417.9C5510.82 1433.18 5523.37 1445.19 5538.11 1445.19H5640.7C5694.73 1445.19 5738.93 1489.39 5738.93 1543.42Z" fill="#F9AE0B"/>
<path d="M6044.6 1297.3V1369.88H5938.73V1665.66H5866.7V1405.9L5902.72 1369.88H5760.83V1297.3H6044.6Z" fill="#F9AE0B"/>
<path d="M6154.61 1665.66H6082.57V1297.3H6154.61V1665.66Z" fill="#F9AE0B"/>
<path d="M6473.62 1297.3V1369.88H6367.75V1665.66H6295.71V1405.9L6331.73 1369.88H6189.84V1297.3H6473.62Z" fill="#F9AE0B"/>
<path d="M6784.44 1297.3V1567.43C6784.44 1621.46 6740.24 1665.66 6686.21 1665.66H6609.81C6555.79 1665.66 6511.58 1621.46 6511.58 1567.43V1297.3H6583.62V1566.34C6583.62 1581.07 6596.17 1593.62 6610.9 1593.62H6684.58C6699.86 1593.62 6711.86 1581.07 6711.86 1566.34V1297.3H6784.44Z" fill="#F9AE0B"/>
<path d="M7103.54 1297.3V1369.88H6997.67V1665.66H6925.64V1405.9L6961.65 1369.88H6819.77V1297.3H7103.54Z" fill="#F9AE0B"/>
<path d="M7250.11 1445.19H7398V1517.77H7213.54V1566.34C7213.54 1581.07 7226.1 1593.62 7240.83 1593.62H7398V1665.66H7239.74C7185.71 1665.66 7141.51 1621.46 7141.51 1567.43V1395.53C7141.51 1341.5 7185.71 1297.3 7239.74 1297.3H7398L7376.17 1369.88H7240.83C7226.1 1369.88 7213.54 1381.88 7213.54 1397.16V1481.75L7250.11 1445.19Z" fill="#F9AE0B"/>
<path d="M2750.55 458.135V1195.09H2605.23V899.213H2348.46V1195.09H2204.24V458.135H2348.46V827.156L2421.67 754.007H2605.23V458.135H2750.55Z" fill="#F9AE0B"/>
<path d="M3071.47 754.007H3367.57V899.213H2998.27V996.382C2998.27 1025.86 3023.4 1050.97 3052.9 1050.97H3367.57V1195.09H3050.71C2942.55 1195.09 2854.04 1106.65 2854.04 998.565V654.655C2854.04 546.569 2942.55 458.135 3050.71 458.135H3367.57L3323.87 603.341H3052.9C3023.4 603.341 2998.27 627.36 2998.27 657.93V827.156L3071.47 754.007Z" fill="#F9AE0B"/>
<path d="M3841.14 458.135C3949.31 458.135 4037.81 546.569 4037.81 654.655V998.565C4037.81 1106.65 3949.31 1195.09 3841.14 1195.09H3471.84V458.135H3841.14ZM3892.5 996.382V657.93C3892.5 627.36 3868.46 603.341 3837.87 603.341H3616.06V978.913L3545.05 1050.97H3837.87C3868.46 1050.97 3892.5 1025.86 3892.5 996.382Z" fill="#F9AE0B"/>
<path d="M4742.86 754.007V998.565C4742.86 1106.65 4654.35 1195.09 4546.19 1195.09H4338.59C4230.42 1195.09 4141.92 1106.65 4141.92 998.565V654.655C4141.92 546.569 4230.42 458.135 4338.59 458.135H4655.45L4611.74 603.341H4340.77C4311.27 603.341 4286.14 627.36 4286.14 657.93V996.382C4286.14 1025.86 4311.27 1050.97 4340.77 1050.97H4542.91C4573.5 1050.97 4597.54 1025.86 4597.54 996.382V899.213H4453.31L4409.61 754.007H4742.86Z" fill="#F9AE0B"/>
<path d="M5063.57 754.007H5359.67V899.213H4990.37V996.382C4990.37 1025.86 5015.5 1050.97 5045 1050.97H5359.67V1195.09H5042.81C4934.64 1195.09 4846.14 1106.65 4846.14 998.565V654.655C4846.14 546.569 4934.64 458.135 5042.81 458.135H5359.67L5315.97 603.341H5045C5015.5 603.341 4990.37 627.36 4990.37 657.93V827.156L5063.57 754.007Z" fill="#F9AE0B"/>
<path d="M6010.24 458.135V1195.09H5864.93V899.213H5608.16V1195.09H5463.94V458.135H5608.16V827.156L5681.37 754.007H5864.93V458.135H6010.24Z" fill="#F9AE0B"/>
<path d="M6496.16 458.135C6604.33 458.135 6692.83 546.569 6692.83 654.655V998.565C6692.83 1106.65 6604.33 1195.09 6496.16 1195.09H6310.41C6202.24 1195.09 6113.74 1106.65 6113.74 998.565V654.655C6113.74 546.569 6202.24 458.135 6310.41 458.135H6496.16ZM6547.51 996.382V657.93C6547.51 627.36 6523.47 603.341 6492.88 603.341H6312.6C6283.1 603.341 6257.97 627.36 6257.97 657.93V996.382C6257.97 1025.86 6283.1 1050.97 6312.6 1050.97H6492.88C6523.47 1050.97 6547.51 1025.86 6547.51 996.382Z" fill="#F9AE0B"/>
<path d="M7397.56 754.007V998.565C7397.56 1106.65 7309.06 1195.09 7200.89 1195.09H6993.3C6885.13 1195.09 6796.63 1106.65 6796.63 998.565V654.655C6796.63 546.569 6885.13 458.135 6993.3 458.135H7310.15L7266.45 603.341H6995.48C6965.98 603.341 6940.85 627.36 6940.85 657.93V996.382C6940.85 1025.86 6965.98 1050.97 6995.48 1050.97H7197.61C7228.21 1050.97 7252.25 1025.86 7252.25 996.382V899.213H7108.02L7064.32 754.007H7397.56Z" fill="#F9AE0B"/>
<path d="M2483.54 1297.3V1369.88H2377.67V1665.66H2305.64V1405.9L2341.65 1369.88H2199.77V1297.3H2483.54Z" stroke="white" stroke-width="257.206" stroke-miterlimit="2.5593" mask="url(#path-2-outside-1_1780_61)"/>
<path d="M2630.11 1445.19H2778V1517.77H2593.54V1566.34C2593.54 1581.07 2606.1 1593.62 2620.83 1593.62H2778V1665.66H2619.74C2565.71 1665.66 2521.51 1621.46 2521.51 1567.43V1395.53C2521.51 1341.5 2565.71 1297.3 2619.74 1297.3H2778L2756.17 1369.88H2620.83C2606.1 1369.88 2593.54 1381.88 2593.54 1397.16V1481.75L2630.11 1445.19Z" stroke="white" stroke-width="257.206" stroke-miterlimit="2.5593" mask="url(#path-2-outside-1_1780_61)"/>
<path d="M2929.4 1593.62H3081.66V1665.66H2928.31C2874.28 1665.66 2830.08 1621.46 2830.08 1567.43V1395.53C2830.08 1341.5 2874.28 1297.3 2928.31 1297.3H3081.66L3059.83 1369.88H2929.4C2914.66 1369.88 2902.11 1381.88 2902.11 1397.16V1566.34C2902.11 1581.07 2914.66 1593.62 2929.4 1593.62Z" stroke="white" stroke-width="257.206" stroke-miterlimit="2.5593" mask="url(#path-2-outside-1_1780_61)"/>
<path d="M3398.18 1297.3V1665.66H3325.6V1517.77H3197.36V1665.66H3125.32V1297.3H3197.36V1481.75L3233.92 1445.19H3325.6V1297.3H3398.18Z" stroke="white" stroke-width="257.206" stroke-miterlimit="2.5593" mask="url(#path-2-outside-1_1780_61)"/>
<path d="M3733.65 1665.66H3661.07L3521.91 1436.46V1665.66H3449.88V1297.3H3521.91L3661.07 1526.5V1297.3H3733.65V1665.66Z" stroke="white" stroke-width="257.206" stroke-miterlimit="2.5593" mask="url(#path-2-outside-1_1780_61)"/>
<path d="M3857.66 1665.66H3785.63V1297.3H3857.66V1665.66Z" stroke="white" stroke-width="257.206" stroke-miterlimit="2.5593" mask="url(#path-2-outside-1_1780_61)"/>
<path d="M4008.59 1593.62H4160.85V1665.66H4007.5C3953.47 1665.66 3909.27 1621.46 3909.27 1567.43V1395.53C3909.27 1341.5 3953.47 1297.3 4007.5 1297.3H4160.85L4139.02 1369.88H4008.59C3993.85 1369.88 3981.3 1381.88 3981.3 1397.16V1566.34C3981.3 1581.07 3993.85 1593.62 4008.59 1593.62Z" stroke="white" stroke-width="257.206" stroke-miterlimit="2.5593" mask="url(#path-2-outside-1_1780_61)"/>
<path d="M4504.66 1395.53V1665.66H4432.08V1554.88H4303.83L4325.66 1482.3H4432.08V1397.16C4432.08 1381.88 4420.07 1369.88 4404.79 1369.88H4303.83C4289.1 1369.88 4276.55 1381.88 4276.55 1397.16V1665.66H4204.51V1395.53C4204.51 1341.5 4248.72 1297.3 4302.74 1297.3H4406.43C4460.46 1297.3 4504.66 1341.5 4504.66 1395.53Z" stroke="white" stroke-width="257.206" stroke-miterlimit="2.5593" mask="url(#path-2-outside-1_1780_61)"/>
<path d="M4788.73 1665.66H4654.48C4600.45 1665.66 4556.25 1621.46 4556.25 1567.43V1297.3H4628.28V1566.34C4628.28 1581.07 4640.84 1593.62 4655.57 1593.62H4766.9L4788.73 1665.66Z" stroke="white" stroke-width="257.206" stroke-miterlimit="2.5593" mask="url(#path-2-outside-1_1780_61)"/>
<path d="M5051.43 1665.66H4979.4V1297.3H5051.43V1665.66Z" stroke="white" stroke-width="257.206" stroke-miterlimit="2.5593" mask="url(#path-2-outside-1_1780_61)"/>
<path d="M5386.82 1665.66H5314.23L5175.07 1436.46V1665.66H5103.04V1297.3H5175.07L5314.23 1526.5V1297.3H5386.82V1665.66Z" stroke="white" stroke-width="257.206" stroke-miterlimit="2.5593" mask="url(#path-2-outside-1_1780_61)"/>
<path d="M5738.93 1543.42V1567.43C5738.93 1621.46 5694.73 1665.66 5640.7 1665.66H5438.79L5460.62 1593.62H5639.07C5654.35 1593.62 5666.35 1581.07 5666.35 1566.34V1545.06C5666.35 1529.78 5654.35 1517.77 5639.07 1517.77H5537.02C5482.99 1517.77 5438.79 1473.57 5438.79 1419.54V1395.53C5438.79 1341.5 5482.99 1297.3 5537.02 1297.3H5711.65L5689.82 1369.88H5538.11C5523.37 1369.88 5510.82 1381.88 5510.82 1397.16V1417.9C5510.82 1433.18 5523.37 1445.19 5538.11 1445.19H5640.7C5694.73 1445.19 5738.93 1489.39 5738.93 1543.42Z" stroke="white" stroke-width="257.206" stroke-miterlimit="2.5593" mask="url(#path-2-outside-1_1780_61)"/>
<path d="M6044.6 1297.3V1369.88H5938.73V1665.66H5866.7V1405.9L5902.72 1369.88H5760.83V1297.3H6044.6Z" stroke="white" stroke-width="257.206" stroke-miterlimit="2.5593" mask="url(#path-2-outside-1_1780_61)"/>
<path d="M6154.61 1665.66H6082.57V1297.3H6154.61V1665.66Z" stroke="white" stroke-width="257.206" stroke-miterlimit="2.5593" mask="url(#path-2-outside-1_1780_61)"/>
<path d="M6473.62 1297.3V1369.88H6367.75V1665.66H6295.71V1405.9L6331.73 1369.88H6189.84V1297.3H6473.62Z" stroke="white" stroke-width="257.206" stroke-miterlimit="2.5593" mask="url(#path-2-outside-1_1780_61)"/>
<path d="M6784.44 1297.3V1567.43C6784.44 1621.46 6740.24 1665.66 6686.21 1665.66H6609.81C6555.79 1665.66 6511.58 1621.46 6511.58 1567.43V1297.3H6583.62V1566.34C6583.62 1581.07 6596.17 1593.62 6610.9 1593.62H6684.58C6699.86 1593.62 6711.86 1581.07 6711.86 1566.34V1297.3H6784.44Z" stroke="white" stroke-width="257.206" stroke-miterlimit="2.5593" mask="url(#path-2-outside-1_1780_61)"/>
<path d="M7103.54 1297.3V1369.88H6997.67V1665.66H6925.64V1405.9L6961.65 1369.88H6819.77V1297.3H7103.54Z" stroke="white" stroke-width="257.206" stroke-miterlimit="2.5593" mask="url(#path-2-outside-1_1780_61)"/>
<path d="M7250.11 1445.19H7398V1517.77H7213.54V1566.34C7213.54 1581.07 7226.1 1593.62 7240.83 1593.62H7398V1665.66H7239.74C7185.71 1665.66 7141.51 1621.46 7141.51 1567.43V1395.53C7141.51 1341.5 7185.71 1297.3 7239.74 1297.3H7398L7376.17 1369.88H7240.83C7226.1 1369.88 7213.54 1381.88 7213.54 1397.16V1481.75L7250.11 1445.19Z" stroke="white" stroke-width="257.206" stroke-miterlimit="2.5593" mask="url(#path-2-outside-1_1780_61)"/>
<path d="M2750.55 458.135V1195.09H2605.23V899.213H2348.46V1195.09H2204.24V458.135H2348.46V827.156L2421.67 754.007H2605.23V458.135H2750.55Z" stroke="white" stroke-width="257.206" stroke-miterlimit="2.5593" mask="url(#path-2-outside-1_1780_61)"/>
<path d="M3071.47 754.007H3367.57V899.213H2998.27V996.382C2998.27 1025.86 3023.4 1050.97 3052.9 1050.97H3367.57V1195.09H3050.71C2942.55 1195.09 2854.04 1106.65 2854.04 998.565V654.655C2854.04 546.569 2942.55 458.135 3050.71 458.135H3367.57L3323.87 603.341H3052.9C3023.4 603.341 2998.27 627.36 2998.27 657.93V827.156L3071.47 754.007Z" stroke="white" stroke-width="257.206" stroke-miterlimit="2.5593" mask="url(#path-2-outside-1_1780_61)"/>
<path d="M3841.14 458.135C3949.31 458.135 4037.81 546.569 4037.81 654.655V998.565C4037.81 1106.65 3949.31 1195.09 3841.14 1195.09H3471.84V458.135H3841.14ZM3892.5 996.382V657.93C3892.5 627.36 3868.46 603.341 3837.87 603.341H3616.06V978.913L3545.05 1050.97H3837.87C3868.46 1050.97 3892.5 1025.86 3892.5 996.382Z" stroke="white" stroke-width="257.206" stroke-miterlimit="2.5593" mask="url(#path-2-outside-1_1780_61)"/>
<path d="M4742.86 754.007V998.565C4742.86 1106.65 4654.35 1195.09 4546.19 1195.09H4338.59C4230.42 1195.09 4141.92 1106.65 4141.92 998.565V654.655C4141.92 546.569 4230.42 458.135 4338.59 458.135H4655.45L4611.74 603.341H4340.77C4311.27 603.341 4286.14 627.36 4286.14 657.93V996.382C4286.14 1025.86 4311.27 1050.97 4340.77 1050.97H4542.91C4573.5 1050.97 4597.54 1025.86 4597.54 996.382V899.213H4453.31L4409.61 754.007H4742.86Z" stroke="white" stroke-width="257.206" stroke-miterlimit="2.5593" mask="url(#path-2-outside-1_1780_61)"/>
<path d="M5063.57 754.007H5359.67V899.213H4990.37V996.382C4990.37 1025.86 5015.5 1050.97 5045 1050.97H5359.67V1195.09H5042.81C4934.64 1195.09 4846.14 1106.65 4846.14 998.565V654.655C4846.14 546.569 4934.64 458.135 5042.81 458.135H5359.67L5315.97 603.341H5045C5015.5 603.341 4990.37 627.36 4990.37 657.93V827.156L5063.57 754.007Z" stroke="white" stroke-width="257.206" stroke-miterlimit="2.5593" mask="url(#path-2-outside-1_1780_61)"/>
<path d="M6010.24 458.135V1195.09H5864.93V899.213H5608.16V1195.09H5463.94V458.135H5608.16V827.156L5681.37 754.007H5864.93V458.135H6010.24Z" stroke="white" stroke-width="257.206" stroke-miterlimit="2.5593" mask="url(#path-2-outside-1_1780_61)"/>
<path d="M6496.16 458.135C6604.33 458.135 6692.83 546.569 6692.83 654.655V998.565C6692.83 1106.65 6604.33 1195.09 6496.16 1195.09H6310.41C6202.24 1195.09 6113.74 1106.65 6113.74 998.565V654.655C6113.74 546.569 6202.24 458.135 6310.41 458.135H6496.16ZM6547.51 996.382V657.93C6547.51 627.36 6523.47 603.341 6492.88 603.341H6312.6C6283.1 603.341 6257.97 627.36 6257.97 657.93V996.382C6257.97 1025.86 6283.1 1050.97 6312.6 1050.97H6492.88C6523.47 1050.97 6547.51 1025.86 6547.51 996.382Z" stroke="white" stroke-width="257.206" stroke-miterlimit="2.5593" mask="url(#path-2-outside-1_1780_61)"/>
<path d="M7397.56 754.007V998.565C7397.56 1106.65 7309.06 1195.09 7200.89 1195.09H6993.3C6885.13 1195.09 6796.63 1106.65 6796.63 998.565V654.655C6796.63 546.569 6885.13 458.135 6993.3 458.135H7310.15L7266.45 603.341H6995.48C6965.98 603.341 6940.85 627.36 6940.85 657.93V996.382C6940.85 1025.86 6965.98 1050.97 6995.48 1050.97H7197.61C7228.21 1050.97 7252.25 1025.86 7252.25 996.382V899.213H7108.02L7064.32 754.007H7397.56Z" stroke="white" stroke-width="257.206" stroke-miterlimit="2.5593" mask="url(#path-2-outside-1_1780_61)"/>
<path fill-rule="evenodd" clip-rule="evenodd" d="M923.414 118.878C1000.6 93.3844 1174.02 242.06 1309.52 375.349C1381.34 252.487 1466.56 135.282 1528.36 139.706C1587.39 143.931 1621.08 262.889 1640.27 390.292C1827.21 455.047 1896.34 640.905 1896.34 640.905L1993.33 651.397C1995.2 650.633 1997.05 649.946 1998.87 649.334C1998.8 643.269 1999.84 637.09 2002.14 631.08C2011.91 605.508 2041.9 593.211 2067.47 602.978C2093.04 612.746 2105.86 641.394 2096.09 666.966C2091.66 678.565 2083.34 687.539 2073.19 692.971C2099.13 778.87 2047.37 966.87 1857.24 1134.82L2127.22 1360.34L1830.01 1430.37L1957.83 1652.03L1655.38 1615.43L1699.49 1867.28L1427.8 1729.23L1382.5 1980.69L1173.76 1756.19L1044.16 1978.24L925.52 1696.84L728.243 1859.05L714.695 1555.85L474.646 1641.11L565.058 1351.13L310.399 1349.05L496.233 1105.44L256.402 1014.45L514.587 850.894L320.683 682.618L618.373 618.376L494.764 394.701L842.013 443.154C845.316 283.718 864.88 138.212 923.414 118.878Z" fill="#F9AE0B"/>
<path d="M1495.65 538.202C1538.07 521.04 1588.64 547.126 1608.61 596.467L1666.18 738.781C1686.14 788.122 1667.93 842.034 1625.51 859.196C1583.09 876.358 1532.51 850.272 1512.55 800.93L1503.27 777.997L1538.95 686.29L1450.63 645.677C1438.37 600.183 1456.91 553.873 1495.65 538.202Z" fill="white"/>
<path d="M905.38 64.2793C945.207 51.1241 987.097 62.6448 1019.76 76.542C1054.64 91.3804 1091.75 114.515 1128.32 140.997C1183.76 181.143 1242.74 232.508 1297.76 284.23C1323.92 243.286 1351.51 204.324 1379.14 172.26C1399.78 148.314 1422.11 126.224 1445.54 110.057C1467.83 94.6739 1497.33 80.3587 1530.87 82.25L1532.47 82.3525L1534.11 82.4834C1568.46 85.4831 1594.15 104.794 1611.73 125.335C1629.33 145.898 1642.5 171.71 1652.75 197.729C1669.88 241.2 1682.43 294.624 1691.81 348.772C1781.76 388.206 1844.21 451.427 1884.51 505.528C1907.13 535.888 1923.27 564.007 1933.84 584.731C1934.27 585.588 1934.7 586.433 1935.12 587.265L1959.05 589.853C1986.68 548.116 2040.73 531.881 2086.74 548.795L2087.99 549.264L2089.28 549.766C2143.66 571.329 2170.74 632.676 2149.8 687.482V687.483C2146.18 696.96 2141.35 705.637 2135.54 713.398C2141.44 769.071 2128.42 836.774 2099.16 905.618C2068.39 978.01 2017.8 1056.43 1943.64 1132.07L2164.08 1316.21L2252.35 1389.93L2140.41 1416.3L1918.43 1468.6L2007.64 1623.31L2065.09 1722.93L1950.93 1709.11L1725.38 1681.82L1756.12 1857.36L1775.96 1970.64L1673.44 1918.54L1470.68 1815.51L1439.09 1990.88L1418.7 2104.06L1340.39 2019.84L1184.38 1852.06L1093.82 2007.22L1035.85 2106.55L991.175 2000.58L902.487 1790.22L764.763 1903.47L675.934 1976.5L670.801 1861.62L660.721 1636.04L493.89 1695.29L385.521 1733.78L419.752 1623.99L487.098 1407.99L309.93 1406.54L194.934 1405.6L264.683 1314.17L403.761 1131.86L236.006 1068.21L128.484 1027.42L225.631 965.879L418.537 843.673L282.995 726.045L196.142 650.671L308.554 626.412L530.633 578.486L444.438 422.513L388.813 321.86L502.71 337.753L786.831 377.397C789.879 319.125 795.694 263.348 805.785 216.396C812.64 184.501 822.082 153.653 835.801 128.091C849.143 103.229 870.722 75.727 905.38 64.2793Z" stroke="white" stroke-width="115" stroke-miterlimit="2.5593"/>
<path d="M2483.54 1297.3V1369.88H2377.67V1665.66H2305.64V1405.9L2341.65 1369.88H2199.77V1297.3H2483.54Z" fill="#F9AE0B"/>
<path d="M2630.11 1445.19H2778V1517.77H2593.54V1566.34C2593.54 1581.07 2606.1 1593.62 2620.83 1593.62H2778V1665.66H2619.74C2565.71 1665.66 2521.51 1621.46 2521.51 1567.43V1395.53C2521.51 1341.5 2565.71 1297.3 2619.74 1297.3H2778L2756.17 1369.88H2620.83C2606.1 1369.88 2593.54 1381.88 2593.54 1397.16V1481.75L2630.11 1445.19Z" fill="#F9AE0B"/>
<path d="M2929.4 1593.62H3081.66V1665.66H2928.31C2874.28 1665.66 2830.08 1621.46 2830.08 1567.43V1395.53C2830.08 1341.5 2874.28 1297.3 2928.31 1297.3H3081.66L3059.83 1369.88H2929.4C2914.66 1369.88 2902.11 1381.88 2902.11 1397.16V1566.34C2902.11 1581.07 2914.66 1593.62 2929.4 1593.62Z" fill="#F9AE0B"/>
<path d="M3398.18 1297.3V1665.66H3325.6V1517.77H3197.36V1665.66H3125.32V1297.3H3197.36V1481.75L3233.92 1445.19H3325.6V1297.3H3398.18Z" fill="#F9AE0B"/>
<path d="M3733.65 1665.66H3661.07L3521.91 1436.46V1665.66H3449.88V1297.3H3521.91L3661.07 1526.5V1297.3H3733.65V1665.66Z" fill="#F9AE0B"/>
<path d="M3857.66 1665.66H3785.63V1297.3H3857.66V1665.66Z" fill="#F9AE0B"/>
<path d="M4008.59 1593.62H4160.85V1665.66H4007.5C3953.47 1665.66 3909.27 1621.46 3909.27 1567.43V1395.53C3909.27 1341.5 3953.47 1297.3 4007.5 1297.3H4160.85L4139.02 1369.88H4008.59C3993.85 1369.88 3981.3 1381.88 3981.3 1397.16V1566.34C3981.3 1581.07 3993.85 1593.62 4008.59 1593.62Z" fill="#F9AE0B"/>
<path d="M4504.66 1395.53V1665.66H4432.08V1554.88H4303.83L4325.66 1482.3H4432.08V1397.16C4432.08 1381.88 4420.07 1369.88 4404.79 1369.88H4303.83C4289.1 1369.88 4276.55 1381.88 4276.55 1397.16V1665.66H4204.51V1395.53C4204.51 1341.5 4248.72 1297.3 4302.74 1297.3H4406.43C4460.46 1297.3 4504.66 1341.5 4504.66 1395.53Z" fill="#F9AE0B"/>
<path d="M4788.73 1665.66H4654.48C4600.45 1665.66 4556.25 1621.46 4556.25 1567.43V1297.3H4628.28V1566.34C4628.28 1581.07 4640.84 1593.62 4655.57 1593.62H4766.9L4788.73 1665.66Z" fill="#F9AE0B"/>
<path d="M5051.43 1665.66H4979.4V1297.3H5051.43V1665.66Z" fill="#F9AE0B"/>
<path d="M5386.82 1665.66H5314.23L5175.07 1436.46V1665.66H5103.04V1297.3H5175.07L5314.23 1526.5V1297.3H5386.82V1665.66Z" fill="#F9AE0B"/>
<path d="M5738.93 1543.42V1567.43C5738.93 1621.46 5694.73 1665.66 5640.7 1665.66H5438.79L5460.62 1593.62H5639.07C5654.35 1593.62 5666.35 1581.07 5666.35 1566.34V1545.06C5666.35 1529.78 5654.35 1517.77 5639.07 1517.77H5537.02C5482.99 1517.77 5438.79 1473.57 5438.79 1419.54V1395.53C5438.79 1341.5 5482.99 1297.3 5537.02 1297.3H5711.65L5689.82 1369.88H5538.11C5523.37 1369.88 5510.82 1381.88 5510.82 1397.16V1417.9C5510.82 1433.18 5523.37 1445.19 5538.11 1445.19H5640.7C5694.73 1445.19 5738.93 1489.39 5738.93 1543.42Z" fill="#F9AE0B"/>
<path d="M6044.6 1297.3V1369.88H5938.73V1665.66H5866.7V1405.9L5902.72 1369.88H5760.83V1297.3H6044.6Z" fill="#F9AE0B"/>
<path d="M6154.61 1665.66H6082.57V1297.3H6154.61V1665.66Z" fill="#F9AE0B"/>
<path d="M6473.62 1297.3V1369.88H6367.75V1665.66H6295.71V1405.9L6331.73 1369.88H6189.84V1297.3H6473.62Z" fill="#F9AE0B"/>
<path d="M6784.44 1297.3V1567.43C6784.44 1621.46 6740.24 1665.66 6686.21 1665.66H6609.81C6555.79 1665.66 6511.58 1621.46 6511.58 1567.43V1297.3H6583.62V1566.34C6583.62 1581.07 6596.17 1593.62 6610.9 1593.62H6684.58C6699.86 1593.62 6711.86 1581.07 6711.86 1566.34V1297.3H6784.44Z" fill="#F9AE0B"/>
<path d="M7103.54 1297.3V1369.88H6997.67V1665.66H6925.64V1405.9L6961.65 1369.88H6819.77V1297.3H7103.54Z" fill="#F9AE0B"/>
<path d="M7250.11 1445.19H7398V1517.77H7213.54V1566.34C7213.54 1581.07 7226.1 1593.62 7240.83 1593.62H7398V1665.66H7239.74C7185.71 1665.66 7141.51 1621.46 7141.51 1567.43V1395.53C7141.51 1341.5 7185.71 1297.3 7239.74 1297.3H7398L7376.17 1369.88H7240.83C7226.1 1369.88 7213.54 1381.88 7213.54 1397.16V1481.75L7250.11 1445.19Z" fill="#F9AE0B"/>
<path d="M2750.55 458.135V1195.09H2605.23V899.213H2348.46V1195.09H2204.24V458.135H2348.46V827.156L2421.67 754.007H2605.23V458.135H2750.55Z" fill="#F9AE0B"/>
<path d="M3071.47 754.007H3367.57V899.213H2998.27V996.382C2998.27 1025.86 3023.4 1050.97 3052.9 1050.97H3367.57V1195.09H3050.71C2942.55 1195.09 2854.04 1106.65 2854.04 998.565V654.655C2854.04 546.569 2942.55 458.135 3050.71 458.135H3367.57L3323.87 603.341H3052.9C3023.4 603.341 2998.27 627.36 2998.27 657.93V827.156L3071.47 754.007Z" fill="#F9AE0B"/>
<path d="M3841.14 458.135C3949.31 458.135 4037.81 546.569 4037.81 654.655V998.565C4037.81 1106.65 3949.31 1195.09 3841.14 1195.09H3471.84V458.135H3841.14ZM3892.5 996.382V657.93C3892.5 627.36 3868.46 603.341 3837.87 603.341H3616.06V978.913L3545.05 1050.97H3837.87C3868.46 1050.97 3892.5 1025.86 3892.5 996.382Z" fill="#F9AE0B"/>
<path d="M4742.86 754.007V998.565C4742.86 1106.65 4654.35 1195.09 4546.19 1195.09H4338.59C4230.42 1195.09 4141.92 1106.65 4141.92 998.565V654.655C4141.92 546.569 4230.42 458.135 4338.59 458.135H4655.45L4611.74 603.341H4340.77C4311.27 603.341 4286.14 627.36 4286.14 657.93V996.382C4286.14 1025.86 4311.27 1050.97 4340.77 1050.97H4542.91C4573.5 1050.97 4597.54 1025.86 4597.54 996.382V899.213H4453.31L4409.61 754.007H4742.86Z" fill="#F9AE0B"/>
<path d="M5063.57 754.007H5359.67V899.213H4990.37V996.382C4990.37 1025.86 5015.5 1050.97 5045 1050.97H5359.67V1195.09H5042.81C4934.64 1195.09 4846.14 1106.65 4846.14 998.565V654.655C4846.14 546.569 4934.64 458.135 5042.81 458.135H5359.67L5315.97 603.341H5045C5015.5 603.341 4990.37 627.36 4990.37 657.93V827.156L5063.57 754.007Z" fill="#F9AE0B"/>
<path d="M6010.24 458.135V1195.09H5864.93V899.213H5608.16V1195.09H5463.94V458.135H5608.16V827.156L5681.37 754.007H5864.93V458.135H6010.24Z" fill="#F9AE0B"/>
<path d="M6496.16 458.135C6604.33 458.135 6692.83 546.569 6692.83 654.655V998.565C6692.83 1106.65 6604.33 1195.09 6496.16 1195.09H6310.41C6202.24 1195.09 6113.74 1106.65 6113.74 998.565V654.655C6113.74 546.569 6202.24 458.135 6310.41 458.135H6496.16ZM6547.51 996.382V657.93C6547.51 627.36 6523.47 603.341 6492.88 603.341H6312.6C6283.1 603.341 6257.97 627.36 6257.97 657.93V996.382C6257.97 1025.86 6283.1 1050.97 6312.6 1050.97H6492.88C6523.47 1050.97 6547.51 1025.86 6547.51 996.382Z" fill="#F9AE0B"/>
<path d="M7397.56 754.007V998.565C7397.56 1106.65 7309.06 1195.09 7200.89 1195.09H6993.3C6885.13 1195.09 6796.63 1106.65 6796.63 998.565V654.655C6796.63 546.569 6885.13 458.135 6993.3 458.135H7310.15L7266.45 603.341H6995.48C6965.98 603.341 6940.85 627.36 6940.85 657.93V996.382C6940.85 1025.86 6965.98 1050.97 6995.48 1050.97H7197.61C7228.21 1050.97 7252.25 1025.86 7252.25 996.382V899.213H7108.02L7064.32 754.007H7397.56Z" fill="#F9AE0B"/>
</svg>
