<svg width="1871" height="1867" viewBox="0 0 1871 1867" fill="none" xmlns="http://www.w3.org/2000/svg">
<path fill-rule="evenodd" clip-rule="evenodd" d="M667.012 3.37685C744.193 -22.1302 917.617 126.625 1053.12 259.986C1124.94 137.058 1210.16 19.7901 1271.96 24.2162C1330.98 28.4433 1364.68 147.466 1383.87 274.936C1570.81 339.727 1639.93 525.684 1639.93 525.684L1736.93 536.182C1738.8 535.417 1740.64 534.73 1742.46 534.117C1742.39 528.05 1743.44 521.867 1745.74 515.854C1755.51 490.268 1784.15 477.449 1809.72 487.222L1811.07 487.737C1836.64 497.51 1849.45 526.173 1839.69 551.759C1835.26 563.365 1826.94 572.343 1816.79 577.778C1842.73 663.724 1790.97 851.824 1600.83 1019.86L1870.82 1245.5L1573.6 1315.57L1701.43 1537.35L1398.98 1500.73L1443.08 1752.72L1171.4 1614.59L1126.1 1866.19L917.354 1641.57L787.756 1863.74L669.117 1582.19L471.841 1744.48L458.293 1441.12L218.243 1526.42L308.655 1236.29L53.9971 1234.21L239.831 990.469L0 899.432L258.185 735.786L64.2803 567.419L361.971 503.143L238.361 279.348L585.61 327.827C588.913 168.306 608.477 22.7214 667.012 3.37685Z" fill="#FDFDFD"/>
<path d="M1239.25 422.926C1281.67 405.755 1332.24 431.855 1352.2 481.223L1409.78 623.612C1429.74 672.98 1411.53 726.921 1369.11 744.092C1326.68 761.263 1276.11 735.163 1256.15 685.795L1246.87 662.849L1282.54 571.093L1194.23 530.459C1181.96 484.941 1200.51 438.605 1239.25 422.926Z" fill="#F9AE0B"/>
</svg>
