<svg width="2378" height="2235" viewBox="0 0 2378 2235" fill="none" xmlns="http://www.w3.org/2000/svg">
<path d="M905.381 64.2778C945.208 51.1234 987.097 62.6453 1019.76 76.5425C1054.64 91.381 1091.75 114.515 1128.32 140.998C1183.76 181.143 1242.74 232.508 1297.76 284.231C1323.92 243.286 1351.51 204.324 1379.14 172.259C1399.78 148.313 1422.11 126.223 1445.54 110.056C1468.18 94.4292 1498.27 79.904 1532.47 82.3521H1532.47C1567.64 84.87 1593.87 104.467 1611.74 125.334C1629.34 145.897 1642.5 171.709 1652.75 197.728C1669.88 241.198 1682.43 294.62 1691.81 348.766C1831.72 410.067 1905.88 529.117 1935.12 587.263L1959.02 589.848C1986.03 548.775 2038.82 530.486 2086.63 548.744H2086.63L2087.98 549.257L2087.99 549.262C2143.23 570.361 2170.9 632.245 2149.8 687.483C2146.18 696.959 2141.35 705.635 2135.54 713.396C2141.44 769.069 2128.42 836.773 2099.16 905.618C2068.39 978.009 2017.8 1056.43 1943.64 1132.06L2164.08 1316.2L2252.35 1389.93L2140.41 1416.3L1918.43 1468.6L2007.64 1623.31L2065.09 1722.93L1950.93 1709.11L1725.38 1681.82L1756.12 1857.36L1775.96 1970.64L1673.44 1918.54L1470.68 1815.51L1439.09 1990.88L1418.7 2104.06L1340.39 2019.84L1184.38 1852.05L1093.82 2007.22L1035.85 2106.54L991.175 2000.58L902.487 1790.22L764.763 1903.46L675.934 1976.5L670.801 1861.62L660.721 1636.04L493.89 1695.29L385.521 1733.78L419.752 1623.99L487.098 1407.99L309.93 1406.54L194.934 1405.6L264.683 1314.17L403.761 1131.85L236.006 1068.21L128.484 1027.42L225.631 965.876L418.537 843.67L282.995 726.042L196.142 650.667L308.554 626.41L530.633 578.484L444.438 422.51L388.813 321.858L502.71 337.75L786.831 377.395C789.879 319.123 795.694 263.347 805.785 216.394C812.64 184.5 822.082 153.652 835.801 128.09C849.143 103.229 870.722 75.7265 905.38 64.2788L905.381 64.2778Z" fill="#F9AE0B" stroke="#FDFDFD" stroke-width="115"/>
<path d="M1079.83 602.496V1463.5H977.565V1043.98H796.88V1463.5H695.389V602.496H796.88V993.196L848.395 941.638H977.565V602.496H1079.83Z" fill="#FDFDFD"/>
<path d="M1529.41 602.496V704.843H1380.24V1463.5H1278.75V755.631L1329.5 704.843H1129.59V602.496H1529.41Z" fill="#FDFDFD"/>
<path d="M1684.39 1463.5H1582.9V602.496H1684.39V1463.5Z" fill="#FDFDFD"/>
</svg>
