<svg width="313" height="93" viewBox="0 0 313 93" fill="none" xmlns="http://www.w3.org/2000/svg">
<path d="M269.575 62.6133L268.648 22.4959H91.6089V13.7891H71.5811V74.0899H89.8593H95.3757L97.3723 62.6133H269.575Z" fill="#F9AE0B" stroke="#F9AE0B" stroke-width="0.0411672"/>
<mask id="path-2-outside-1_1791_245" maskUnits="userSpaceOnUse" x="85.0029" y="13.0847" width="228" height="62" fill="black">
<rect fill="white" x="85.0029" y="13.0847" width="228" height="62"/>
<path d="M102.685 53.6307V56.6186H98.3268V68.7952H95.3613V58.1014L96.8441 56.6186H91.0029V53.6307H102.685Z"/>
<path d="M108.719 59.7189H114.807V62.7069H107.214V64.7064C107.214 65.3129 107.73 65.8297 108.337 65.8297H114.807V68.7952H108.292C106.068 68.7952 104.248 66.9754 104.248 64.7513V57.6745C104.248 55.4504 106.068 53.6307 108.292 53.6307H114.807L113.909 56.6186H108.337C107.73 56.6186 107.214 57.1129 107.214 57.7419V61.2241L108.719 59.7189Z"/>
<path d="M121.04 65.8297H127.308V68.7952H120.995C118.771 68.7952 116.951 66.9754 116.951 64.7513V57.6745C116.951 55.4504 118.771 53.6307 120.995 53.6307H127.308L126.409 56.6186H121.04C120.433 56.6186 119.917 57.1129 119.917 57.7419V64.7064C119.917 65.3129 120.433 65.8297 121.04 65.8297Z"/>
<path d="M140.338 53.6307V68.7952H137.35V62.7069H132.071V68.7952H129.105V53.6307H132.071V61.2241L133.576 59.7189H137.35V53.6307H140.338Z"/>
<path d="M154.149 68.7952H151.161L145.432 59.3595V68.7952H142.467V53.6307H145.432L151.161 63.0664V53.6307H154.149V68.7952Z"/>
<path d="M159.254 68.7952H156.288V53.6307H159.254V68.7952Z"/>
<path d="M165.467 65.8297H171.735V68.7952H165.422C163.198 68.7952 161.378 66.9754 161.378 64.7513V57.6745C161.378 55.4504 163.198 53.6307 165.422 53.6307H171.735L170.836 56.6186H165.467C164.861 56.6186 164.344 57.1129 164.344 57.7419V64.7064C164.344 65.3129 164.861 65.8297 165.467 65.8297Z"/>
<path d="M185.889 57.6745V68.7952H182.901V64.2346H177.622L178.52 61.2466H182.901V57.7419C182.901 57.1129 182.407 56.6186 181.778 56.6186H177.622C177.015 56.6186 176.498 57.1129 176.498 57.7419V68.7952H173.533V57.6745C173.533 55.4504 175.352 53.6307 177.577 53.6307H181.845C184.069 53.6307 185.889 55.4504 185.889 57.6745Z"/>
<path d="M197.583 68.7952H192.057C189.832 68.7952 188.013 66.9754 188.013 64.7513V53.6307H190.978V64.7064C190.978 65.3129 191.495 65.8297 192.102 65.8297H196.685L197.583 68.7952Z"/>
<path d="M208.398 68.7952H205.433V53.6307H208.398V68.7952Z"/>
<path d="M222.205 68.7952H219.217L213.488 59.3595V68.7952H210.522V53.6307H213.488L219.217 63.0664V53.6307H222.205V68.7952Z"/>
<path d="M236.701 63.7628V64.7513C236.701 66.9754 234.881 68.7952 232.657 68.7952H224.344L225.243 65.8297H232.589C233.218 65.8297 233.713 65.3129 233.713 64.7064V63.8302C233.713 63.2011 233.218 62.7069 232.589 62.7069H228.388C226.164 62.7069 224.344 60.8872 224.344 58.663V57.6745C224.344 55.4504 226.164 53.6307 228.388 53.6307H235.577L234.679 56.6186H228.433C227.827 56.6186 227.31 57.1129 227.31 57.7419V58.5956C227.31 59.2247 227.827 59.7189 228.433 59.7189H232.657C234.881 59.7189 236.701 61.5387 236.701 63.7628Z"/>
<path d="M249.284 53.6307V56.6186H244.926V68.7952H241.96V58.1014L243.443 56.6186H237.602V53.6307H249.284Z"/>
<path d="M253.813 68.7952H250.847V53.6307H253.813V68.7952Z"/>
<path d="M266.945 53.6307V56.6186H262.587V68.7952H259.621V58.1014L261.104 56.6186H255.263V53.6307H266.945Z"/>
<path d="M279.741 53.6307V64.7513C279.741 66.9754 277.921 68.7952 275.697 68.7952H272.552C270.328 68.7952 268.508 66.9754 268.508 64.7513V53.6307H271.474V64.7064C271.474 65.3129 271.99 65.8297 272.597 65.8297H275.63C276.259 65.8297 276.753 65.3129 276.753 64.7064V53.6307H279.741Z"/>
<path d="M292.878 53.6307V56.6186H288.519V68.7952H285.554V58.1014L287.037 56.6186H281.195V53.6307H292.878Z"/>
<path d="M298.911 59.7189H305V62.7069H297.406V64.7064C297.406 65.3129 297.923 65.8297 298.529 65.8297H305V68.7952H298.484C296.26 68.7952 294.441 66.9754 294.441 64.7513V57.6745C294.441 55.4504 296.26 53.6307 298.484 53.6307H305L304.101 56.6186H298.529C297.923 56.6186 297.406 57.1129 297.406 57.7419V61.2241L298.911 59.7189Z"/>
<path d="M113.677 19.0847V49.4229H107.695V37.2427H97.1244V49.4229H91.1871V19.0847H97.1244V34.2763L100.138 31.2649H107.695V19.0847H113.677Z"/>
<path d="M126.889 31.2649H139.078V37.2427H123.875V41.2428C123.875 42.4564 124.91 43.4901 126.124 43.4901H139.078V49.4229H126.034C121.581 49.4229 117.938 45.7823 117.938 41.3327V27.1749C117.938 22.7253 121.581 19.0847 126.034 19.0847H139.078L137.279 25.0625H126.124C124.91 25.0625 123.875 26.0513 123.875 27.3097V34.2763L126.889 31.2649Z"/>
<path d="M158.574 19.0847C163.027 19.0847 166.67 22.7253 166.67 27.1749V41.3327C166.67 45.7823 163.027 49.4229 158.574 49.4229H143.371V19.0847H158.574ZM160.688 41.2428V27.3097C160.688 26.0513 159.698 25.0625 158.439 25.0625H149.308V40.5237L146.384 43.4901H158.439C159.698 43.4901 160.688 42.4564 160.688 41.2428Z"/>
<path d="M195.695 31.2649V41.3327C195.695 45.7823 192.051 49.4229 187.598 49.4229H179.052C174.599 49.4229 170.956 45.7823 170.956 41.3327V27.1749C170.956 22.7253 174.599 19.0847 179.052 19.0847H192.096L190.297 25.0625H179.142C177.928 25.0625 176.893 26.0513 176.893 27.3097V41.2428C176.893 42.4564 177.928 43.4901 179.142 43.4901H187.463C188.723 43.4901 189.712 42.4564 189.712 41.2428V37.2427H183.775L181.976 31.2649H195.695Z"/>
<path d="M208.898 31.2649H221.087V37.2427H205.884V41.2428C205.884 42.4564 206.919 43.4901 208.133 43.4901H221.087V49.4229H208.043C203.59 49.4229 199.947 45.7823 199.947 41.3327V27.1749C199.947 22.7253 203.59 19.0847 208.043 19.0847H221.087L219.288 25.0625H208.133C206.919 25.0625 205.884 26.0513 205.884 27.3097V34.2763L208.898 31.2649Z"/>
<path d="M247.87 19.0847V49.4229H241.887V37.2427H231.317V49.4229H225.38V19.0847H231.317V34.2763L234.331 31.2649H241.887V19.0847H247.87Z"/>
<path d="M267.873 19.0847C272.326 19.0847 275.97 22.7253 275.97 27.1749V41.3327C275.97 45.7823 272.326 49.4229 267.873 49.4229H260.227C255.774 49.4229 252.13 45.7823 252.13 41.3327V27.1749C252.13 22.7253 255.774 19.0847 260.227 19.0847H267.873ZM269.987 41.2428V27.3097C269.987 26.0513 268.998 25.0625 267.738 25.0625H260.317C259.102 25.0625 258.068 26.0513 258.068 27.3097V41.2428C258.068 42.4564 259.102 43.4901 260.317 43.4901H267.738C268.998 43.4901 269.987 42.4564 269.987 41.2428Z"/>
<path d="M304.982 31.2649V41.3327C304.982 45.7823 301.338 49.4229 296.885 49.4229H288.339C283.886 49.4229 280.243 45.7823 280.243 41.3327V27.1749C280.243 22.7253 283.886 19.0847 288.339 19.0847H301.383L299.584 25.0625H288.429C287.215 25.0625 286.18 26.0513 286.18 27.3097V41.2428C286.18 42.4564 287.215 43.4901 288.429 43.4901H296.75C298.01 43.4901 298.999 42.4564 298.999 41.2428V37.2427H293.062L291.263 31.2649H304.982Z"/>
</mask>
<path d="M102.685 53.6307V56.6186H98.3268V68.7952H95.3613V58.1014L96.8441 56.6186H91.0029V53.6307H102.685Z" fill="#FDFDFD"/>
<path d="M108.719 59.7189H114.807V62.7069H107.214V64.7064C107.214 65.3129 107.73 65.8297 108.337 65.8297H114.807V68.7952H108.292C106.068 68.7952 104.248 66.9754 104.248 64.7513V57.6745C104.248 55.4504 106.068 53.6307 108.292 53.6307H114.807L113.909 56.6186H108.337C107.73 56.6186 107.214 57.1129 107.214 57.7419V61.2241L108.719 59.7189Z" fill="#FDFDFD"/>
<path d="M121.04 65.8297H127.308V68.7952H120.995C118.771 68.7952 116.951 66.9754 116.951 64.7513V57.6745C116.951 55.4504 118.771 53.6307 120.995 53.6307H127.308L126.409 56.6186H121.04C120.433 56.6186 119.917 57.1129 119.917 57.7419V64.7064C119.917 65.3129 120.433 65.8297 121.04 65.8297Z" fill="#FDFDFD"/>
<path d="M140.338 53.6307V68.7952H137.35V62.7069H132.071V68.7952H129.105V53.6307H132.071V61.2241L133.576 59.7189H137.35V53.6307H140.338Z" fill="#FDFDFD"/>
<path d="M154.149 68.7952H151.161L145.432 59.3595V68.7952H142.467V53.6307H145.432L151.161 63.0664V53.6307H154.149V68.7952Z" fill="#FDFDFD"/>
<path d="M159.254 68.7952H156.288V53.6307H159.254V68.7952Z" fill="#FDFDFD"/>
<path d="M165.467 65.8297H171.735V68.7952H165.422C163.198 68.7952 161.378 66.9754 161.378 64.7513V57.6745C161.378 55.4504 163.198 53.6307 165.422 53.6307H171.735L170.836 56.6186H165.467C164.861 56.6186 164.344 57.1129 164.344 57.7419V64.7064C164.344 65.3129 164.861 65.8297 165.467 65.8297Z" fill="#FDFDFD"/>
<path d="M185.889 57.6745V68.7952H182.901V64.2346H177.622L178.52 61.2466H182.901V57.7419C182.901 57.1129 182.407 56.6186 181.778 56.6186H177.622C177.015 56.6186 176.498 57.1129 176.498 57.7419V68.7952H173.533V57.6745C173.533 55.4504 175.352 53.6307 177.577 53.6307H181.845C184.069 53.6307 185.889 55.4504 185.889 57.6745Z" fill="#FDFDFD"/>
<path d="M197.583 68.7952H192.057C189.832 68.7952 188.013 66.9754 188.013 64.7513V53.6307H190.978V64.7064C190.978 65.3129 191.495 65.8297 192.102 65.8297H196.685L197.583 68.7952Z" fill="#FDFDFD"/>
<path d="M208.398 68.7952H205.433V53.6307H208.398V68.7952Z" fill="#FDFDFD"/>
<path d="M222.205 68.7952H219.217L213.488 59.3595V68.7952H210.522V53.6307H213.488L219.217 63.0664V53.6307H222.205V68.7952Z" fill="#FDFDFD"/>
<path d="M236.701 63.7628V64.7513C236.701 66.9754 234.881 68.7952 232.657 68.7952H224.344L225.243 65.8297H232.589C233.218 65.8297 233.713 65.3129 233.713 64.7064V63.8302C233.713 63.2011 233.218 62.7069 232.589 62.7069H228.388C226.164 62.7069 224.344 60.8872 224.344 58.663V57.6745C224.344 55.4504 226.164 53.6307 228.388 53.6307H235.577L234.679 56.6186H228.433C227.827 56.6186 227.31 57.1129 227.31 57.7419V58.5956C227.31 59.2247 227.827 59.7189 228.433 59.7189H232.657C234.881 59.7189 236.701 61.5387 236.701 63.7628Z" fill="#FDFDFD"/>
<path d="M249.284 53.6307V56.6186H244.926V68.7952H241.96V58.1014L243.443 56.6186H237.602V53.6307H249.284Z" fill="#FDFDFD"/>
<path d="M253.813 68.7952H250.847V53.6307H253.813V68.7952Z" fill="#FDFDFD"/>
<path d="M266.945 53.6307V56.6186H262.587V68.7952H259.621V58.1014L261.104 56.6186H255.263V53.6307H266.945Z" fill="#FDFDFD"/>
<path d="M279.741 53.6307V64.7513C279.741 66.9754 277.921 68.7952 275.697 68.7952H272.552C270.328 68.7952 268.508 66.9754 268.508 64.7513V53.6307H271.474V64.7064C271.474 65.3129 271.99 65.8297 272.597 65.8297H275.63C276.259 65.8297 276.753 65.3129 276.753 64.7064V53.6307H279.741Z" fill="#FDFDFD"/>
<path d="M292.878 53.6307V56.6186H288.519V68.7952H285.554V58.1014L287.037 56.6186H281.195V53.6307H292.878Z" fill="#FDFDFD"/>
<path d="M298.911 59.7189H305V62.7069H297.406V64.7064C297.406 65.3129 297.923 65.8297 298.529 65.8297H305V68.7952H298.484C296.26 68.7952 294.441 66.9754 294.441 64.7513V57.6745C294.441 55.4504 296.26 53.6307 298.484 53.6307H305L304.101 56.6186H298.529C297.923 56.6186 297.406 57.1129 297.406 57.7419V61.2241L298.911 59.7189Z" fill="#FDFDFD"/>
<path d="M113.677 19.0847V49.4229H107.695V37.2427H97.1244V49.4229H91.1871V19.0847H97.1244V34.2763L100.138 31.2649H107.695V19.0847H113.677Z" fill="#FDFDFD"/>
<path d="M126.889 31.2649H139.078V37.2427H123.875V41.2428C123.875 42.4564 124.91 43.4901 126.124 43.4901H139.078V49.4229H126.034C121.581 49.4229 117.938 45.7823 117.938 41.3327V27.1749C117.938 22.7253 121.581 19.0847 126.034 19.0847H139.078L137.279 25.0625H126.124C124.91 25.0625 123.875 26.0513 123.875 27.3097V34.2763L126.889 31.2649Z" fill="#FDFDFD"/>
<path d="M158.574 19.0847C163.027 19.0847 166.67 22.7253 166.67 27.1749V41.3327C166.67 45.7823 163.027 49.4229 158.574 49.4229H143.371V19.0847H158.574ZM160.688 41.2428V27.3097C160.688 26.0513 159.698 25.0625 158.439 25.0625H149.308V40.5237L146.384 43.4901H158.439C159.698 43.4901 160.688 42.4564 160.688 41.2428Z" fill="#FDFDFD"/>
<path d="M195.695 31.2649V41.3327C195.695 45.7823 192.051 49.4229 187.598 49.4229H179.052C174.599 49.4229 170.956 45.7823 170.956 41.3327V27.1749C170.956 22.7253 174.599 19.0847 179.052 19.0847H192.096L190.297 25.0625H179.142C177.928 25.0625 176.893 26.0513 176.893 27.3097V41.2428C176.893 42.4564 177.928 43.4901 179.142 43.4901H187.463C188.723 43.4901 189.712 42.4564 189.712 41.2428V37.2427H183.775L181.976 31.2649H195.695Z" fill="#FDFDFD"/>
<path d="M208.898 31.2649H221.087V37.2427H205.884V41.2428C205.884 42.4564 206.919 43.4901 208.133 43.4901H221.087V49.4229H208.043C203.59 49.4229 199.947 45.7823 199.947 41.3327V27.1749C199.947 22.7253 203.59 19.0847 208.043 19.0847H221.087L219.288 25.0625H208.133C206.919 25.0625 205.884 26.0513 205.884 27.3097V34.2763L208.898 31.2649Z" fill="#FDFDFD"/>
<path d="M247.87 19.0847V49.4229H241.887V37.2427H231.317V49.4229H225.38V19.0847H231.317V34.2763L234.331 31.2649H241.887V19.0847H247.87Z" fill="#FDFDFD"/>
<path d="M267.873 19.0847C272.326 19.0847 275.97 22.7253 275.97 27.1749V41.3327C275.97 45.7823 272.326 49.4229 267.873 49.4229H260.227C255.774 49.4229 252.13 45.7823 252.13 41.3327V27.1749C252.13 22.7253 255.774 19.0847 260.227 19.0847H267.873ZM269.987 41.2428V27.3097C269.987 26.0513 268.998 25.0625 267.738 25.0625H260.317C259.102 25.0625 258.068 26.0513 258.068 27.3097V41.2428C258.068 42.4564 259.102 43.4901 260.317 43.4901H267.738C268.998 43.4901 269.987 42.4564 269.987 41.2428Z" fill="#FDFDFD"/>
<path d="M304.982 31.2649V41.3327C304.982 45.7823 301.338 49.4229 296.885 49.4229H288.339C283.886 49.4229 280.243 45.7823 280.243 41.3327V27.1749C280.243 22.7253 283.886 19.0847 288.339 19.0847H301.383L299.584 25.0625H288.429C287.215 25.0625 286.18 26.0513 286.18 27.3097V41.2428C286.18 42.4564 287.215 43.4901 288.429 43.4901H296.75C298.01 43.4901 298.999 42.4564 298.999 41.2428V37.2427H293.062L291.263 31.2649H304.982Z" fill="#FDFDFD"/>
<path d="M102.685 53.6307V56.6186H98.3268V68.7952H95.3613V58.1014L96.8441 56.6186H91.0029V53.6307H102.685Z" stroke="#F9AE0B" stroke-width="10.5884" stroke-miterlimit="2.5593" mask="url(#path-2-outside-1_1791_245)"/>
<path d="M108.719 59.7189H114.807V62.7069H107.214V64.7064C107.214 65.3129 107.73 65.8297 108.337 65.8297H114.807V68.7952H108.292C106.068 68.7952 104.248 66.9754 104.248 64.7513V57.6745C104.248 55.4504 106.068 53.6307 108.292 53.6307H114.807L113.909 56.6186H108.337C107.73 56.6186 107.214 57.1129 107.214 57.7419V61.2241L108.719 59.7189Z" stroke="#F9AE0B" stroke-width="10.5884" stroke-miterlimit="2.5593" mask="url(#path-2-outside-1_1791_245)"/>
<path d="M121.04 65.8297H127.308V68.7952H120.995C118.771 68.7952 116.951 66.9754 116.951 64.7513V57.6745C116.951 55.4504 118.771 53.6307 120.995 53.6307H127.308L126.409 56.6186H121.04C120.433 56.6186 119.917 57.1129 119.917 57.7419V64.7064C119.917 65.3129 120.433 65.8297 121.04 65.8297Z" stroke="#F9AE0B" stroke-width="10.5884" stroke-miterlimit="2.5593" mask="url(#path-2-outside-1_1791_245)"/>
<path d="M140.338 53.6307V68.7952H137.35V62.7069H132.071V68.7952H129.105V53.6307H132.071V61.2241L133.576 59.7189H137.35V53.6307H140.338Z" stroke="#F9AE0B" stroke-width="10.5884" stroke-miterlimit="2.5593" mask="url(#path-2-outside-1_1791_245)"/>
<path d="M154.149 68.7952H151.161L145.432 59.3595V68.7952H142.467V53.6307H145.432L151.161 63.0664V53.6307H154.149V68.7952Z" stroke="#F9AE0B" stroke-width="10.5884" stroke-miterlimit="2.5593" mask="url(#path-2-outside-1_1791_245)"/>
<path d="M159.254 68.7952H156.288V53.6307H159.254V68.7952Z" stroke="#F9AE0B" stroke-width="10.5884" stroke-miterlimit="2.5593" mask="url(#path-2-outside-1_1791_245)"/>
<path d="M165.467 65.8297H171.735V68.7952H165.422C163.198 68.7952 161.378 66.9754 161.378 64.7513V57.6745C161.378 55.4504 163.198 53.6307 165.422 53.6307H171.735L170.836 56.6186H165.467C164.861 56.6186 164.344 57.1129 164.344 57.7419V64.7064C164.344 65.3129 164.861 65.8297 165.467 65.8297Z" stroke="#F9AE0B" stroke-width="10.5884" stroke-miterlimit="2.5593" mask="url(#path-2-outside-1_1791_245)"/>
<path d="M185.889 57.6745V68.7952H182.901V64.2346H177.622L178.52 61.2466H182.901V57.7419C182.901 57.1129 182.407 56.6186 181.778 56.6186H177.622C177.015 56.6186 176.498 57.1129 176.498 57.7419V68.7952H173.533V57.6745C173.533 55.4504 175.352 53.6307 177.577 53.6307H181.845C184.069 53.6307 185.889 55.4504 185.889 57.6745Z" stroke="#F9AE0B" stroke-width="10.5884" stroke-miterlimit="2.5593" mask="url(#path-2-outside-1_1791_245)"/>
<path d="M197.583 68.7952H192.057C189.832 68.7952 188.013 66.9754 188.013 64.7513V53.6307H190.978V64.7064C190.978 65.3129 191.495 65.8297 192.102 65.8297H196.685L197.583 68.7952Z" stroke="#F9AE0B" stroke-width="10.5884" stroke-miterlimit="2.5593" mask="url(#path-2-outside-1_1791_245)"/>
<path d="M208.398 68.7952H205.433V53.6307H208.398V68.7952Z" stroke="#F9AE0B" stroke-width="10.5884" stroke-miterlimit="2.5593" mask="url(#path-2-outside-1_1791_245)"/>
<path d="M222.205 68.7952H219.217L213.488 59.3595V68.7952H210.522V53.6307H213.488L219.217 63.0664V53.6307H222.205V68.7952Z" stroke="#F9AE0B" stroke-width="10.5884" stroke-miterlimit="2.5593" mask="url(#path-2-outside-1_1791_245)"/>
<path d="M236.701 63.7628V64.7513C236.701 66.9754 234.881 68.7952 232.657 68.7952H224.344L225.243 65.8297H232.589C233.218 65.8297 233.713 65.3129 233.713 64.7064V63.8302C233.713 63.2011 233.218 62.7069 232.589 62.7069H228.388C226.164 62.7069 224.344 60.8872 224.344 58.663V57.6745C224.344 55.4504 226.164 53.6307 228.388 53.6307H235.577L234.679 56.6186H228.433C227.827 56.6186 227.31 57.1129 227.31 57.7419V58.5956C227.31 59.2247 227.827 59.7189 228.433 59.7189H232.657C234.881 59.7189 236.701 61.5387 236.701 63.7628Z" stroke="#F9AE0B" stroke-width="10.5884" stroke-miterlimit="2.5593" mask="url(#path-2-outside-1_1791_245)"/>
<path d="M249.284 53.6307V56.6186H244.926V68.7952H241.96V58.1014L243.443 56.6186H237.602V53.6307H249.284Z" stroke="#F9AE0B" stroke-width="10.5884" stroke-miterlimit="2.5593" mask="url(#path-2-outside-1_1791_245)"/>
<path d="M253.813 68.7952H250.847V53.6307H253.813V68.7952Z" stroke="#F9AE0B" stroke-width="10.5884" stroke-miterlimit="2.5593" mask="url(#path-2-outside-1_1791_245)"/>
<path d="M266.945 53.6307V56.6186H262.587V68.7952H259.621V58.1014L261.104 56.6186H255.263V53.6307H266.945Z" stroke="#F9AE0B" stroke-width="10.5884" stroke-miterlimit="2.5593" mask="url(#path-2-outside-1_1791_245)"/>
<path d="M279.741 53.6307V64.7513C279.741 66.9754 277.921 68.7952 275.697 68.7952H272.552C270.328 68.7952 268.508 66.9754 268.508 64.7513V53.6307H271.474V64.7064C271.474 65.3129 271.99 65.8297 272.597 65.8297H275.63C276.259 65.8297 276.753 65.3129 276.753 64.7064V53.6307H279.741Z" stroke="#F9AE0B" stroke-width="10.5884" stroke-miterlimit="2.5593" mask="url(#path-2-outside-1_1791_245)"/>
<path d="M292.878 53.6307V56.6186H288.519V68.7952H285.554V58.1014L287.037 56.6186H281.195V53.6307H292.878Z" stroke="#F9AE0B" stroke-width="10.5884" stroke-miterlimit="2.5593" mask="url(#path-2-outside-1_1791_245)"/>
<path d="M298.911 59.7189H305V62.7069H297.406V64.7064C297.406 65.3129 297.923 65.8297 298.529 65.8297H305V68.7952H298.484C296.26 68.7952 294.441 66.9754 294.441 64.7513V57.6745C294.441 55.4504 296.26 53.6307 298.484 53.6307H305L304.101 56.6186H298.529C297.923 56.6186 297.406 57.1129 297.406 57.7419V61.2241L298.911 59.7189Z" stroke="#F9AE0B" stroke-width="10.5884" stroke-miterlimit="2.5593" mask="url(#path-2-outside-1_1791_245)"/>
<path d="M113.677 19.0847V49.4229H107.695V37.2427H97.1244V49.4229H91.1871V19.0847H97.1244V34.2763L100.138 31.2649H107.695V19.0847H113.677Z" stroke="#F9AE0B" stroke-width="10.5884" stroke-miterlimit="2.5593" mask="url(#path-2-outside-1_1791_245)"/>
<path d="M126.889 31.2649H139.078V37.2427H123.875V41.2428C123.875 42.4564 124.91 43.4901 126.124 43.4901H139.078V49.4229H126.034C121.581 49.4229 117.938 45.7823 117.938 41.3327V27.1749C117.938 22.7253 121.581 19.0847 126.034 19.0847H139.078L137.279 25.0625H126.124C124.91 25.0625 123.875 26.0513 123.875 27.3097V34.2763L126.889 31.2649Z" stroke="#F9AE0B" stroke-width="10.5884" stroke-miterlimit="2.5593" mask="url(#path-2-outside-1_1791_245)"/>
<path d="M158.574 19.0847C163.027 19.0847 166.67 22.7253 166.67 27.1749V41.3327C166.67 45.7823 163.027 49.4229 158.574 49.4229H143.371V19.0847H158.574ZM160.688 41.2428V27.3097C160.688 26.0513 159.698 25.0625 158.439 25.0625H149.308V40.5237L146.384 43.4901H158.439C159.698 43.4901 160.688 42.4564 160.688 41.2428Z" stroke="#F9AE0B" stroke-width="10.5884" stroke-miterlimit="2.5593" mask="url(#path-2-outside-1_1791_245)"/>
<path d="M195.695 31.2649V41.3327C195.695 45.7823 192.051 49.4229 187.598 49.4229H179.052C174.599 49.4229 170.956 45.7823 170.956 41.3327V27.1749C170.956 22.7253 174.599 19.0847 179.052 19.0847H192.096L190.297 25.0625H179.142C177.928 25.0625 176.893 26.0513 176.893 27.3097V41.2428C176.893 42.4564 177.928 43.4901 179.142 43.4901H187.463C188.723 43.4901 189.712 42.4564 189.712 41.2428V37.2427H183.775L181.976 31.2649H195.695Z" stroke="#F9AE0B" stroke-width="10.5884" stroke-miterlimit="2.5593" mask="url(#path-2-outside-1_1791_245)"/>
<path d="M208.898 31.2649H221.087V37.2427H205.884V41.2428C205.884 42.4564 206.919 43.4901 208.133 43.4901H221.087V49.4229H208.043C203.59 49.4229 199.947 45.7823 199.947 41.3327V27.1749C199.947 22.7253 203.59 19.0847 208.043 19.0847H221.087L219.288 25.0625H208.133C206.919 25.0625 205.884 26.0513 205.884 27.3097V34.2763L208.898 31.2649Z" stroke="#F9AE0B" stroke-width="10.5884" stroke-miterlimit="2.5593" mask="url(#path-2-outside-1_1791_245)"/>
<path d="M247.87 19.0847V49.4229H241.887V37.2427H231.317V49.4229H225.38V19.0847H231.317V34.2763L234.331 31.2649H241.887V19.0847H247.87Z" stroke="#F9AE0B" stroke-width="10.5884" stroke-miterlimit="2.5593" mask="url(#path-2-outside-1_1791_245)"/>
<path d="M267.873 19.0847C272.326 19.0847 275.97 22.7253 275.97 27.1749V41.3327C275.97 45.7823 272.326 49.4229 267.873 49.4229H260.227C255.774 49.4229 252.13 45.7823 252.13 41.3327V27.1749C252.13 22.7253 255.774 19.0847 260.227 19.0847H267.873ZM269.987 41.2428V27.3097C269.987 26.0513 268.998 25.0625 267.738 25.0625H260.317C259.102 25.0625 258.068 26.0513 258.068 27.3097V41.2428C258.068 42.4564 259.102 43.4901 260.317 43.4901H267.738C268.998 43.4901 269.987 42.4564 269.987 41.2428Z" stroke="#F9AE0B" stroke-width="10.5884" stroke-miterlimit="2.5593" mask="url(#path-2-outside-1_1791_245)"/>
<path d="M304.982 31.2649V41.3327C304.982 45.7823 301.338 49.4229 296.885 49.4229H288.339C283.886 49.4229 280.243 45.7823 280.243 41.3327V27.1749C280.243 22.7253 283.886 19.0847 288.339 19.0847H301.383L299.584 25.0625H288.429C287.215 25.0625 286.18 26.0513 286.18 27.3097V41.2428C286.18 42.4564 287.215 43.4901 288.429 43.4901H296.75C298.01 43.4901 298.999 42.4564 298.999 41.2428V37.2427H293.062L291.263 31.2649H304.982Z" stroke="#F9AE0B" stroke-width="10.5884" stroke-miterlimit="2.5593" mask="url(#path-2-outside-1_1791_245)"/>
<path fill-rule="evenodd" clip-rule="evenodd" d="M38.459 5.11847C41.6363 4.06898 48.7757 10.1895 54.3539 15.6767C57.3105 10.6188 60.8189 5.79379 63.3631 5.9759C65.7928 6.14983 67.1801 11.047 67.9701 16.2918C75.6657 18.9576 78.5114 26.6089 78.5114 26.6089L82.5045 27.0408C82.5815 27.0093 82.6574 26.981 82.7324 26.9558C82.7294 26.7062 82.7726 26.4518 82.8671 26.2044C83.2692 25.1517 84.504 24.6454 85.5567 25.0475C86.6094 25.4496 87.1368 26.629 86.7347 27.6817C86.5523 28.1592 86.2099 28.5286 85.7921 28.7522C86.8599 32.2885 84.7293 40.0279 76.9019 46.9418L88.0164 56.2258L75.7809 59.1087L81.0431 68.2341L68.592 66.7274L70.4077 77.0953L59.2233 71.4121L57.3584 81.7639L48.7649 72.5219L43.4297 81.6632L38.5457 70.0789L30.4244 76.7566L29.8666 64.2746L19.9845 67.7843L23.7065 55.8468L13.2229 55.7611L20.8732 45.7325L11 41.9868L21.6287 35.2535L13.6462 28.3261L25.9013 25.6814L20.8127 16.4733L35.1079 18.468C35.2439 11.9045 36.0493 5.9144 38.459 5.11847Z" fill="#FDFDFD"/>
<path d="M62.0163 22.3809C63.7627 21.6744 65.8446 22.7482 66.6664 24.7795L69.0365 30.6381C69.8582 32.6694 69.1086 34.8888 67.3622 35.5953C65.6158 36.3018 63.5339 35.2279 62.7121 33.1967L62.3302 32.2525L63.7988 28.4772L60.163 26.8053C59.6581 24.9325 60.4217 23.026 62.0163 22.3809Z" fill="#F9AE0B"/>
<path d="M38.0244 2.78125C39.5699 2.38899 41.165 2.83957 42.4258 3.37598C43.8614 3.98684 45.3891 4.93922 46.8945 6.0293C49.1774 7.6823 51.6059 9.7971 53.8711 11.9268C54.9479 10.2413 56.0823 8.63638 57.2197 7.31641C58.0692 6.33061 58.9887 5.42044 59.9531 4.75488C60.8271 4.15173 61.9708 3.58842 63.2705 3.60352L63.5322 3.61523L63.7988 3.64258C65.1131 3.81962 66.1055 4.5785 66.7949 5.38379C67.5194 6.2302 68.0614 7.29326 68.4834 8.36426C69.1885 10.1539 69.703 12.3539 70.0889 14.583C73.7932 16.2063 76.3648 18.8085 78.0244 21.0361C78.9555 22.2858 79.6206 23.4428 80.0557 24.2959C80.0735 24.3309 80.0894 24.3664 80.1064 24.4004L81.0938 24.5068C82.2003 22.8359 84.3357 22.1576 86.1943 22.7627L86.4014 22.8359L86.6113 22.9229C88.7445 23.8642 89.7877 26.3235 88.9463 28.5264C88.7971 28.9169 88.5966 29.274 88.3574 29.5938C88.6002 31.8856 88.0659 34.6729 86.8613 37.5068C85.5946 40.4869 83.5091 43.7125 80.4561 46.8262L89.5342 54.4092L93.167 57.4443L88.5596 58.5303L79.4209 60.6826L83.0938 67.0518L85.459 71.1523L80.7588 70.584L71.4736 69.46L72.7393 76.6865L73.5557 81.3506L69.335 79.2051L60.9883 74.9639L59.6875 82.1836L58.8486 86.8428L55.625 83.376L49.2021 76.4678L45.4736 82.8564L43.0879 86.9453L41.248 82.583L37.5967 73.9229L31.9277 78.585L28.2705 81.5918L28.0596 76.8623L27.6445 67.5752L20.7764 70.0146L16.3154 71.5996L17.7246 67.0801L20.4961 58.1875L13.2031 58.1279L8.46973 58.0898L11.3408 54.3252L17.0664 46.8193L10.1602 44.2002L5.73438 42.5205L9.7334 39.9873L17.6748 34.9561L12.0947 30.1143L8.51953 27.0107L13.1465 26.0127L22.2891 24.0391L18.7412 17.6182L16.4512 13.4746L21.1396 14.1289L32.8369 15.7607C32.9624 13.3619 33.2008 11.0657 33.6162 9.13281C33.8984 7.81988 34.2878 6.55031 34.8525 5.49805C35.4018 4.47457 36.29 3.34236 37.7168 2.87109L38.0244 2.78125Z" stroke="#F9AE0B" stroke-width="4.73423" stroke-miterlimit="2.5593"/>
<path d="M102.685 53.6307V56.6186H98.3268V68.7952H95.3613V58.1014L96.8441 56.6186H91.0029V53.6307H102.685Z" fill="#FDFDFD"/>
<path d="M108.719 59.7189H114.807V62.7069H107.214V64.7064C107.214 65.3129 107.73 65.8297 108.337 65.8297H114.807V68.7952H108.292C106.068 68.7952 104.248 66.9754 104.248 64.7513V57.6745C104.248 55.4504 106.068 53.6307 108.292 53.6307H114.807L113.909 56.6186H108.337C107.73 56.6186 107.214 57.1129 107.214 57.7419V61.2241L108.719 59.7189Z" fill="#FDFDFD"/>
<path d="M121.04 65.8297H127.308V68.7952H120.995C118.771 68.7952 116.951 66.9754 116.951 64.7513V57.6745C116.951 55.4504 118.771 53.6307 120.995 53.6307H127.308L126.409 56.6186H121.04C120.433 56.6186 119.917 57.1129 119.917 57.7419V64.7064C119.917 65.3129 120.433 65.8297 121.04 65.8297Z" fill="#FDFDFD"/>
<path d="M140.338 53.6307V68.7952H137.35V62.7069H132.071V68.7952H129.105V53.6307H132.071V61.2241L133.576 59.7189H137.35V53.6307H140.338Z" fill="#FDFDFD"/>
<path d="M154.149 68.7952H151.161L145.432 59.3595V68.7952H142.467V53.6307H145.432L151.161 63.0664V53.6307H154.149V68.7952Z" fill="#FDFDFD"/>
<path d="M159.254 68.7952H156.288V53.6307H159.254V68.7952Z" fill="#FDFDFD"/>
<path d="M165.467 65.8297H171.735V68.7952H165.422C163.198 68.7952 161.378 66.9754 161.378 64.7513V57.6745C161.378 55.4504 163.198 53.6307 165.422 53.6307H171.735L170.836 56.6186H165.467C164.861 56.6186 164.344 57.1129 164.344 57.7419V64.7064C164.344 65.3129 164.861 65.8297 165.467 65.8297Z" fill="#FDFDFD"/>
<path d="M185.889 57.6745V68.7952H182.901V64.2346H177.622L178.52 61.2466H182.901V57.7419C182.901 57.1129 182.407 56.6186 181.778 56.6186H177.622C177.015 56.6186 176.498 57.1129 176.498 57.7419V68.7952H173.533V57.6745C173.533 55.4504 175.352 53.6307 177.577 53.6307H181.845C184.069 53.6307 185.889 55.4504 185.889 57.6745Z" fill="#FDFDFD"/>
<path d="M197.583 68.7952H192.057C189.832 68.7952 188.013 66.9754 188.013 64.7513V53.6307H190.978V64.7064C190.978 65.3129 191.495 65.8297 192.102 65.8297H196.685L197.583 68.7952Z" fill="#FDFDFD"/>
<path d="M208.398 68.7952H205.433V53.6307H208.398V68.7952Z" fill="#FDFDFD"/>
<path d="M222.205 68.7952H219.217L213.488 59.3595V68.7952H210.522V53.6307H213.488L219.217 63.0664V53.6307H222.205V68.7952Z" fill="#FDFDFD"/>
<path d="M236.701 63.7628V64.7513C236.701 66.9754 234.881 68.7952 232.657 68.7952H224.344L225.243 65.8297H232.589C233.218 65.8297 233.713 65.3129 233.713 64.7064V63.8302C233.713 63.2011 233.218 62.7069 232.589 62.7069H228.388C226.164 62.7069 224.344 60.8872 224.344 58.663V57.6745C224.344 55.4504 226.164 53.6307 228.388 53.6307H235.577L234.679 56.6186H228.433C227.827 56.6186 227.31 57.1129 227.31 57.7419V58.5956C227.31 59.2247 227.827 59.7189 228.433 59.7189H232.657C234.881 59.7189 236.701 61.5387 236.701 63.7628Z" fill="#FDFDFD"/>
<path d="M249.284 53.6307V56.6186H244.926V68.7952H241.96V58.1014L243.443 56.6186H237.602V53.6307H249.284Z" fill="#FDFDFD"/>
<path d="M253.813 68.7952H250.847V53.6307H253.813V68.7952Z" fill="#FDFDFD"/>
<path d="M266.945 53.6307V56.6186H262.587V68.7952H259.621V58.1014L261.104 56.6186H255.263V53.6307H266.945Z" fill="#FDFDFD"/>
<path d="M279.741 53.6307V64.7513C279.741 66.9754 277.921 68.7952 275.697 68.7952H272.552C270.328 68.7952 268.508 66.9754 268.508 64.7513V53.6307H271.474V64.7064C271.474 65.3129 271.99 65.8297 272.597 65.8297H275.63C276.259 65.8297 276.753 65.3129 276.753 64.7064V53.6307H279.741Z" fill="#FDFDFD"/>
<path d="M292.878 53.6307V56.6186H288.519V68.7952H285.554V58.1014L287.037 56.6186H281.195V53.6307H292.878Z" fill="#FDFDFD"/>
<path d="M298.911 59.7189H305V62.7069H297.406V64.7064C297.406 65.3129 297.923 65.8297 298.529 65.8297H305V68.7952H298.484C296.26 68.7952 294.441 66.9754 294.441 64.7513V57.6745C294.441 55.4504 296.26 53.6307 298.484 53.6307H305L304.101 56.6186H298.529C297.923 56.6186 297.406 57.1129 297.406 57.7419V61.2241L298.911 59.7189Z" fill="#FDFDFD"/>
<path d="M113.677 19.0847V49.4229H107.695V37.2427H97.1244V49.4229H91.1871V19.0847H97.1244V34.2763L100.138 31.2649H107.695V19.0847H113.677Z" fill="#FDFDFD"/>
<path d="M126.889 31.2649H139.078V37.2427H123.875V41.2428C123.875 42.4564 124.91 43.4901 126.124 43.4901H139.078V49.4229H126.034C121.581 49.4229 117.938 45.7823 117.938 41.3327V27.1749C117.938 22.7253 121.581 19.0847 126.034 19.0847H139.078L137.279 25.0625H126.124C124.91 25.0625 123.875 26.0513 123.875 27.3097V34.2763L126.889 31.2649Z" fill="#FDFDFD"/>
<path d="M158.574 19.0847C163.027 19.0847 166.67 22.7253 166.67 27.1749V41.3327C166.67 45.7823 163.027 49.4229 158.574 49.4229H143.371V19.0847H158.574ZM160.688 41.2428V27.3097C160.688 26.0513 159.698 25.0625 158.439 25.0625H149.308V40.5237L146.384 43.4901H158.439C159.698 43.4901 160.688 42.4564 160.688 41.2428Z" fill="#FDFDFD"/>
<path d="M195.695 31.2649V41.3327C195.695 45.7823 192.051 49.4229 187.598 49.4229H179.052C174.599 49.4229 170.956 45.7823 170.956 41.3327V27.1749C170.956 22.7253 174.599 19.0847 179.052 19.0847H192.096L190.297 25.0625H179.142C177.928 25.0625 176.893 26.0513 176.893 27.3097V41.2428C176.893 42.4564 177.928 43.4901 179.142 43.4901H187.463C188.723 43.4901 189.712 42.4564 189.712 41.2428V37.2427H183.775L181.976 31.2649H195.695Z" fill="#FDFDFD"/>
<path d="M208.898 31.2649H221.087V37.2427H205.884V41.2428C205.884 42.4564 206.919 43.4901 208.133 43.4901H221.087V49.4229H208.043C203.59 49.4229 199.947 45.7823 199.947 41.3327V27.1749C199.947 22.7253 203.59 19.0847 208.043 19.0847H221.087L219.288 25.0625H208.133C206.919 25.0625 205.884 26.0513 205.884 27.3097V34.2763L208.898 31.2649Z" fill="#FDFDFD"/>
<path d="M247.87 19.0847V49.4229H241.887V37.2427H231.317V49.4229H225.38V19.0847H231.317V34.2763L234.331 31.2649H241.887V19.0847H247.87Z" fill="#FDFDFD"/>
<path d="M267.873 19.0847C272.326 19.0847 275.97 22.7253 275.97 27.1749V41.3327C275.97 45.7823 272.326 49.4229 267.873 49.4229H260.227C255.774 49.4229 252.13 45.7823 252.13 41.3327V27.1749C252.13 22.7253 255.774 19.0847 260.227 19.0847H267.873ZM269.987 41.2428V27.3097C269.987 26.0513 268.998 25.0625 267.738 25.0625H260.317C259.102 25.0625 258.068 26.0513 258.068 27.3097V41.2428C258.068 42.4564 259.102 43.4901 260.317 43.4901H267.738C268.998 43.4901 269.987 42.4564 269.987 41.2428Z" fill="#FDFDFD"/>
<path d="M304.982 31.2649V41.3327C304.982 45.7823 301.338 49.4229 296.885 49.4229H288.339C283.886 49.4229 280.243 45.7823 280.243 41.3327V27.1749C280.243 22.7253 283.886 19.0847 288.339 19.0847H301.383L299.584 25.0625H288.429C287.215 25.0625 286.18 26.0513 286.18 27.3097V41.2428C286.18 42.4564 287.215 43.4901 288.429 43.4901H296.75C298.01 43.4901 298.999 42.4564 298.999 41.2428V37.2427H293.062L291.263 31.2649H304.982Z" fill="#FDFDFD"/>
</svg>
