<svg width="294" height="77" viewBox="0 0 294 77" fill="none" xmlns="http://www.w3.org/2000/svg">
<path d="M91.6852 48.6307V51.6186H87.3268V63.7952H84.3613V53.1014L85.8441 51.6186H80.0029V48.6307H91.6852Z" fill="#FDFDFD"/>
<path d="M97.7189 54.7189H103.807V57.7069H96.2137V59.7064C96.2137 60.3129 96.7304 60.8297 97.337 60.8297H103.807V63.7952H97.292C95.0679 63.7952 93.2482 61.9754 93.2482 59.7513V52.6745C93.2482 50.4504 95.0679 48.6307 97.292 48.6307H103.807L102.909 51.6186H97.337C96.7304 51.6186 96.2137 52.1129 96.2137 52.7419V56.2241L97.7189 54.7189Z" fill="#FDFDFD"/>
<path d="M110.04 60.8297H116.308V63.7952H109.995C107.771 63.7952 105.951 61.9754 105.951 59.7513V52.6745C105.951 50.4504 107.771 48.6307 109.995 48.6307H116.308L115.409 51.6186H110.04C109.433 51.6186 108.917 52.1129 108.917 52.7419V59.7064C108.917 60.3129 109.433 60.8297 110.04 60.8297Z" fill="#FDFDFD"/>
<path d="M129.338 48.6307V63.7952H126.35V57.7069H121.071V63.7952H118.105V48.6307H121.071V56.2241L122.576 54.7189H126.35V48.6307H129.338Z" fill="#FDFDFD"/>
<path d="M143.149 63.7952H140.161L134.432 54.3595V63.7952H131.467V48.6307H134.432L140.161 58.0664V48.6307H143.149V63.7952Z" fill="#FDFDFD"/>
<path d="M148.254 63.7952H145.288V48.6307H148.254V63.7952Z" fill="#FDFDFD"/>
<path d="M154.467 60.8297H160.735V63.7952H154.422C152.198 63.7952 150.378 61.9754 150.378 59.7513V52.6745C150.378 50.4504 152.198 48.6307 154.422 48.6307H160.735L159.836 51.6186H154.467C153.861 51.6186 153.344 52.1129 153.344 52.7419V59.7064C153.344 60.3129 153.861 60.8297 154.467 60.8297Z" fill="#FDFDFD"/>
<path d="M174.889 52.6745V63.7952H171.901V59.2346H166.622L167.52 56.2466H171.901V52.7419C171.901 52.1129 171.407 51.6186 170.778 51.6186H166.622C166.015 51.6186 165.498 52.1129 165.498 52.7419V63.7952H162.533V52.6745C162.533 50.4504 164.352 48.6307 166.577 48.6307H170.845C173.069 48.6307 174.889 50.4504 174.889 52.6745Z" fill="#FDFDFD"/>
<path d="M186.583 63.7952H181.057C178.832 63.7952 177.013 61.9754 177.013 59.7513V48.6307H179.978V59.7064C179.978 60.3129 180.495 60.8297 181.102 60.8297H185.685L186.583 63.7952Z" fill="#FDFDFD"/>
<path d="M197.398 63.7952H194.433V48.6307H197.398V63.7952Z" fill="#FDFDFD"/>
<path d="M211.205 63.7952H208.217L202.488 54.3595V63.7952H199.522V48.6307H202.488L208.217 58.0664V48.6307H211.205V63.7952Z" fill="#FDFDFD"/>
<path d="M225.701 58.7628V59.7513C225.701 61.9754 223.881 63.7952 221.657 63.7952H213.344L214.243 60.8297H221.589C222.218 60.8297 222.713 60.3129 222.713 59.7064V58.8302C222.713 58.2011 222.218 57.7069 221.589 57.7069H217.388C215.164 57.7069 213.344 55.8872 213.344 53.663V52.6745C213.344 50.4504 215.164 48.6307 217.388 48.6307H224.577L223.679 51.6186H217.433C216.827 51.6186 216.31 52.1129 216.31 52.7419V53.5956C216.31 54.2247 216.827 54.7189 217.433 54.7189H221.657C223.881 54.7189 225.701 56.5387 225.701 58.7628Z" fill="#FDFDFD"/>
<path d="M238.284 48.6307V51.6186H233.926V63.7952H230.96V53.1014L232.443 51.6186H226.602V48.6307H238.284Z" fill="#FDFDFD"/>
<path d="M242.813 63.7952H239.847V48.6307H242.813V63.7952Z" fill="#FDFDFD"/>
<path d="M255.945 48.6307V51.6186H251.587V63.7952H248.621V53.1014L250.104 51.6186H244.263V48.6307H255.945Z" fill="#FDFDFD"/>
<path d="M268.741 48.6307V59.7513C268.741 61.9754 266.921 63.7952 264.697 63.7952H261.552C259.328 63.7952 257.508 61.9754 257.508 59.7513V48.6307H260.474V59.7064C260.474 60.3129 260.99 60.8297 261.597 60.8297H264.63C265.259 60.8297 265.753 60.3129 265.753 59.7064V48.6307H268.741Z" fill="#FDFDFD"/>
<path d="M281.878 48.6307V51.6186H277.519V63.7952H274.554V53.1014L276.036 51.6186H270.195V48.6307H281.878Z" fill="#FDFDFD"/>
<path d="M287.911 54.7189H294V57.7069H286.406V59.7064C286.406 60.3129 286.923 60.8297 287.529 60.8297H294V63.7952H287.484C285.26 63.7952 283.441 61.9754 283.441 59.7513V52.6745C283.441 50.4504 285.26 48.6307 287.484 48.6307H294L293.101 51.6186H287.529C286.923 51.6186 286.406 52.1129 286.406 52.7419V56.2241L287.911 54.7189Z" fill="#FDFDFD"/>
<path d="M102.677 14.0847V44.4229H96.6947V32.2427H86.1244V44.4229H80.1871V14.0847H86.1244V29.2763L89.138 26.2649H96.6947V14.0847H102.677Z" fill="#FDFDFD"/>
<path d="M115.889 26.2649H128.078V32.2427H112.875V36.2428C112.875 37.4564 113.91 38.4901 115.124 38.4901H128.078V44.4229H115.034C110.581 44.4229 106.938 40.7823 106.938 36.3327V22.1749C106.938 17.7253 110.581 14.0847 115.034 14.0847H128.078L126.279 20.0625H115.124C113.91 20.0625 112.875 21.0513 112.875 22.3097V29.2763L115.889 26.2649Z" fill="#FDFDFD"/>
<path d="M147.574 14.0847C152.027 14.0847 155.67 17.7253 155.67 22.1749V36.3327C155.67 40.7823 152.027 44.4229 147.574 44.4229H132.371V14.0847H147.574ZM149.688 36.2428V22.3097C149.688 21.0513 148.698 20.0625 147.439 20.0625H138.308V35.5237L135.384 38.4901H147.439C148.698 38.4901 149.688 37.4564 149.688 36.2428Z" fill="#FDFDFD"/>
<path d="M184.695 26.2649V36.3327C184.695 40.7823 181.051 44.4229 176.598 44.4229H168.052C163.599 44.4229 159.956 40.7823 159.956 36.3327V22.1749C159.956 17.7253 163.599 14.0847 168.052 14.0847H181.096L179.297 20.0625H168.142C166.928 20.0625 165.893 21.0513 165.893 22.3097V36.2428C165.893 37.4564 166.928 38.4901 168.142 38.4901H176.463C177.723 38.4901 178.712 37.4564 178.712 36.2428V32.2427H172.775L170.976 26.2649H184.695Z" fill="#FDFDFD"/>
<path d="M197.898 26.2649H210.087V32.2427H194.884V36.2428C194.884 37.4564 195.919 38.4901 197.133 38.4901H210.087V44.4229H197.043C192.59 44.4229 188.947 40.7823 188.947 36.3327V22.1749C188.947 17.7253 192.59 14.0847 197.043 14.0847H210.087L208.288 20.0625H197.133C195.919 20.0625 194.884 21.0513 194.884 22.3097V29.2763L197.898 26.2649Z" fill="#FDFDFD"/>
<path d="M236.87 14.0847V44.4229H230.887V32.2427H220.317V44.4229H214.38V14.0847H220.317V29.2763L223.331 26.2649H230.887V14.0847H236.87Z" fill="#FDFDFD"/>
<path d="M256.873 14.0847C261.326 14.0847 264.97 17.7253 264.97 22.1749V36.3327C264.97 40.7823 261.326 44.4229 256.873 44.4229H249.227C244.774 44.4229 241.13 40.7823 241.13 36.3327V22.1749C241.13 17.7253 244.774 14.0847 249.227 14.0847H256.873ZM258.987 36.2428V22.3097C258.987 21.0513 257.998 20.0625 256.738 20.0625H249.317C248.102 20.0625 247.068 21.0513 247.068 22.3097V36.2428C247.068 37.4564 248.102 38.4901 249.317 38.4901H256.738C257.998 38.4901 258.987 37.4564 258.987 36.2428Z" fill="#FDFDFD"/>
<path d="M293.982 26.2649V36.3327C293.982 40.7823 290.338 44.4229 285.885 44.4229H277.339C272.886 44.4229 269.243 40.7823 269.243 36.3327V22.1749C269.243 17.7253 272.886 14.0847 277.339 14.0847H290.383L288.584 20.0625H277.429C276.215 20.0625 275.18 21.0513 275.18 22.3097V36.2428C275.18 37.4564 276.215 38.4901 277.429 38.4901H285.75C287.01 38.4901 287.999 37.4564 287.999 36.2428V32.2427H282.062L280.263 26.2649H293.982Z" fill="#FDFDFD"/>
<path fill-rule="evenodd" clip-rule="evenodd" d="M27.459 0.118469C30.6363 -0.93102 37.7757 5.18954 43.3539 10.6767C46.3105 5.6188 49.8189 0.793793 52.3631 0.975904C54.7928 1.14983 56.1801 6.04701 56.9701 11.2918C64.6657 13.9576 67.5115 21.6089 67.5115 21.6089L71.5045 22.0408C71.5815 22.0093 71.6574 21.981 71.7324 21.9558C71.7294 21.7062 71.7726 21.4518 71.8671 21.2044C72.2692 20.1517 73.504 19.6454 74.5567 20.0475C75.6094 20.4496 76.1368 21.629 75.7347 22.6817C75.5523 23.1592 75.2099 23.5286 74.7921 23.7523C75.8599 27.2885 73.7293 35.0279 65.9019 41.9418L77.0164 51.2258L64.7809 54.1087L70.0431 63.2341L57.592 61.7274L59.4077 72.0953L48.2233 66.4121L46.3583 76.7639L37.7649 67.5219L32.4297 76.6632L27.5457 65.0789L19.4244 71.7566L18.8666 59.2746L8.98446 62.7843L12.7065 50.8468L2.22291 50.7611L9.87317 40.7325L0 36.9868L10.6287 30.2535L2.64624 23.3261L14.9013 20.6814L9.81266 11.4733L24.1079 13.468C24.2439 6.90448 25.0493 0.914402 27.459 0.118469Z" fill="#FDFDFD"/>
<path d="M51.0163 17.3809C52.7627 16.6744 54.8446 17.7482 55.6664 19.7795L58.0365 25.6381C58.8582 27.6694 58.1086 29.8888 56.3622 30.5953C54.6158 31.3018 52.5339 30.2279 51.7121 28.1967L51.3302 27.2525L52.7988 23.4772L49.163 21.8053C48.6581 19.9325 49.4217 18.026 51.0163 17.3809Z" fill="#F9AE0B"/>
<path d="M91.6852 48.6307V51.6186H87.3268V63.7952H84.3613V53.1014L85.8441 51.6186H80.0029V48.6307H91.6852Z" fill="#FDFDFD"/>
<path d="M97.7189 54.7189H103.807V57.7069H96.2137V59.7064C96.2137 60.3129 96.7304 60.8297 97.337 60.8297H103.807V63.7952H97.292C95.0679 63.7952 93.2482 61.9754 93.2482 59.7513V52.6745C93.2482 50.4504 95.0679 48.6307 97.292 48.6307H103.807L102.909 51.6186H97.337C96.7304 51.6186 96.2137 52.1129 96.2137 52.7419V56.2241L97.7189 54.7189Z" fill="#FDFDFD"/>
<path d="M110.04 60.8297H116.308V63.7952H109.995C107.771 63.7952 105.951 61.9754 105.951 59.7513V52.6745C105.951 50.4504 107.771 48.6307 109.995 48.6307H116.308L115.409 51.6186H110.04C109.433 51.6186 108.917 52.1129 108.917 52.7419V59.7064C108.917 60.3129 109.433 60.8297 110.04 60.8297Z" fill="#FDFDFD"/>
<path d="M129.338 48.6307V63.7952H126.35V57.7069H121.071V63.7952H118.105V48.6307H121.071V56.2241L122.576 54.7189H126.35V48.6307H129.338Z" fill="#FDFDFD"/>
<path d="M143.149 63.7952H140.161L134.432 54.3595V63.7952H131.467V48.6307H134.432L140.161 58.0664V48.6307H143.149V63.7952Z" fill="#FDFDFD"/>
<path d="M148.254 63.7952H145.288V48.6307H148.254V63.7952Z" fill="#FDFDFD"/>
<path d="M154.467 60.8297H160.735V63.7952H154.422C152.198 63.7952 150.378 61.9754 150.378 59.7513V52.6745C150.378 50.4504 152.198 48.6307 154.422 48.6307H160.735L159.836 51.6186H154.467C153.861 51.6186 153.344 52.1129 153.344 52.7419V59.7064C153.344 60.3129 153.861 60.8297 154.467 60.8297Z" fill="#FDFDFD"/>
<path d="M174.889 52.6745V63.7952H171.901V59.2346H166.622L167.52 56.2466H171.901V52.7419C171.901 52.1129 171.407 51.6186 170.778 51.6186H166.622C166.015 51.6186 165.498 52.1129 165.498 52.7419V63.7952H162.533V52.6745C162.533 50.4504 164.352 48.6307 166.577 48.6307H170.845C173.069 48.6307 174.889 50.4504 174.889 52.6745Z" fill="#FDFDFD"/>
<path d="M186.583 63.7952H181.057C178.832 63.7952 177.013 61.9754 177.013 59.7513V48.6307H179.978V59.7064C179.978 60.3129 180.495 60.8297 181.102 60.8297H185.685L186.583 63.7952Z" fill="#FDFDFD"/>
<path d="M197.398 63.7952H194.433V48.6307H197.398V63.7952Z" fill="#FDFDFD"/>
<path d="M211.205 63.7952H208.217L202.488 54.3595V63.7952H199.522V48.6307H202.488L208.217 58.0664V48.6307H211.205V63.7952Z" fill="#FDFDFD"/>
<path d="M225.701 58.7628V59.7513C225.701 61.9754 223.881 63.7952 221.657 63.7952H213.344L214.243 60.8297H221.589C222.218 60.8297 222.713 60.3129 222.713 59.7064V58.8302C222.713 58.2011 222.218 57.7069 221.589 57.7069H217.388C215.164 57.7069 213.344 55.8872 213.344 53.663V52.6745C213.344 50.4504 215.164 48.6307 217.388 48.6307H224.577L223.679 51.6186H217.433C216.827 51.6186 216.31 52.1129 216.31 52.7419V53.5956C216.31 54.2247 216.827 54.7189 217.433 54.7189H221.657C223.881 54.7189 225.701 56.5387 225.701 58.7628Z" fill="#FDFDFD"/>
<path d="M238.284 48.6307V51.6186H233.926V63.7952H230.96V53.1014L232.443 51.6186H226.602V48.6307H238.284Z" fill="#FDFDFD"/>
<path d="M242.813 63.7952H239.847V48.6307H242.813V63.7952Z" fill="#FDFDFD"/>
<path d="M255.945 48.6307V51.6186H251.587V63.7952H248.621V53.1014L250.104 51.6186H244.263V48.6307H255.945Z" fill="#FDFDFD"/>
<path d="M268.741 48.6307V59.7513C268.741 61.9754 266.921 63.7952 264.697 63.7952H261.552C259.328 63.7952 257.508 61.9754 257.508 59.7513V48.6307H260.474V59.7064C260.474 60.3129 260.99 60.8297 261.597 60.8297H264.63C265.259 60.8297 265.753 60.3129 265.753 59.7064V48.6307H268.741Z" fill="#FDFDFD"/>
<path d="M281.878 48.6307V51.6186H277.519V63.7952H274.554V53.1014L276.036 51.6186H270.195V48.6307H281.878Z" fill="#FDFDFD"/>
<path d="M287.911 54.7189H294V57.7069H286.406V59.7064C286.406 60.3129 286.923 60.8297 287.529 60.8297H294V63.7952H287.484C285.26 63.7952 283.441 61.9754 283.441 59.7513V52.6745C283.441 50.4504 285.26 48.6307 287.484 48.6307H294L293.101 51.6186H287.529C286.923 51.6186 286.406 52.1129 286.406 52.7419V56.2241L287.911 54.7189Z" fill="#FDFDFD"/>
<path d="M102.677 14.0847V44.4229H96.6947V32.2427H86.1244V44.4229H80.1871V14.0847H86.1244V29.2763L89.138 26.2649H96.6947V14.0847H102.677Z" fill="#FDFDFD"/>
<path d="M115.889 26.2649H128.078V32.2427H112.875V36.2428C112.875 37.4564 113.91 38.4901 115.124 38.4901H128.078V44.4229H115.034C110.581 44.4229 106.938 40.7823 106.938 36.3327V22.1749C106.938 17.7253 110.581 14.0847 115.034 14.0847H128.078L126.279 20.0625H115.124C113.91 20.0625 112.875 21.0513 112.875 22.3097V29.2763L115.889 26.2649Z" fill="#FDFDFD"/>
<path d="M147.574 14.0847C152.027 14.0847 155.67 17.7253 155.67 22.1749V36.3327C155.67 40.7823 152.027 44.4229 147.574 44.4229H132.371V14.0847H147.574ZM149.688 36.2428V22.3097C149.688 21.0513 148.698 20.0625 147.439 20.0625H138.308V35.5237L135.384 38.4901H147.439C148.698 38.4901 149.688 37.4564 149.688 36.2428Z" fill="#FDFDFD"/>
<path d="M184.695 26.2649V36.3327C184.695 40.7823 181.051 44.4229 176.598 44.4229H168.052C163.599 44.4229 159.956 40.7823 159.956 36.3327V22.1749C159.956 17.7253 163.599 14.0847 168.052 14.0847H181.096L179.297 20.0625H168.142C166.928 20.0625 165.893 21.0513 165.893 22.3097V36.2428C165.893 37.4564 166.928 38.4901 168.142 38.4901H176.463C177.723 38.4901 178.712 37.4564 178.712 36.2428V32.2427H172.775L170.976 26.2649H184.695Z" fill="#FDFDFD"/>
<path d="M197.898 26.2649H210.087V32.2427H194.884V36.2428C194.884 37.4564 195.919 38.4901 197.133 38.4901H210.087V44.4229H197.043C192.59 44.4229 188.947 40.7823 188.947 36.3327V22.1749C188.947 17.7253 192.59 14.0847 197.043 14.0847H210.087L208.288 20.0625H197.133C195.919 20.0625 194.884 21.0513 194.884 22.3097V29.2763L197.898 26.2649Z" fill="#FDFDFD"/>
<path d="M236.87 14.0847V44.4229H230.887V32.2427H220.317V44.4229H214.38V14.0847H220.317V29.2763L223.331 26.2649H230.887V14.0847H236.87Z" fill="#FDFDFD"/>
<path d="M256.873 14.0847C261.326 14.0847 264.97 17.7253 264.97 22.1749V36.3327C264.97 40.7823 261.326 44.4229 256.873 44.4229H249.227C244.774 44.4229 241.13 40.7823 241.13 36.3327V22.1749C241.13 17.7253 244.774 14.0847 249.227 14.0847H256.873ZM258.987 36.2428V22.3097C258.987 21.0513 257.998 20.0625 256.738 20.0625H249.317C248.102 20.0625 247.068 21.0513 247.068 22.3097V36.2428C247.068 37.4564 248.102 38.4901 249.317 38.4901H256.738C257.998 38.4901 258.987 37.4564 258.987 36.2428Z" fill="#FDFDFD"/>
<path d="M293.982 26.2649V36.3327C293.982 40.7823 290.338 44.4229 285.885 44.4229H277.339C272.886 44.4229 269.243 40.7823 269.243 36.3327V22.1749C269.243 17.7253 272.886 14.0847 277.339 14.0847H290.383L288.584 20.0625H277.429C276.215 20.0625 275.18 21.0513 275.18 22.3097V36.2428C275.18 37.4564 276.215 38.4901 277.429 38.4901H285.75C287.01 38.4901 287.999 37.4564 287.999 36.2428V32.2427H282.062L280.263 26.2649H293.982Z" fill="#FDFDFD"/>
</svg>
