<svg width="1872" height="1865" viewBox="0 0 1872 1865" fill="none" xmlns="http://www.w3.org/2000/svg">
<path d="M667.414 2.87709C744.596 -22.6154 918.021 126.061 1053.52 259.35C1125.34 136.487 1210.56 19.2814 1272.37 23.7052C1331.39 27.9306 1365.09 146.888 1384.27 274.29C1571.03 338.982 1640.2 524.537 1640.34 524.903L1737.33 535.396C1739.2 534.631 1741.05 533.945 1742.87 533.333C1742.8 527.268 1743.84 521.089 1746.14 515.079C1755.91 489.508 1784.56 476.695 1810.13 486.463L1811.47 486.977C1837.04 496.744 1849.86 525.393 1840.09 550.965C1835.66 562.564 1827.34 571.538 1817.19 576.97C1843.13 662.87 1791.37 850.869 1601.24 1018.81L1871.22 1244.33L1574.01 1314.36L1701.83 1536.03L1399.38 1499.43L1443.49 1751.28L1171.8 1613.23L1126.5 1864.69L917.757 1640.19L788.158 1862.24L669.52 1580.84L472.243 1743.05L458.695 1439.85L218.646 1525.1L309.058 1235.13L54.3994 1233.04L240.233 989.44L0.402344 898.45L258.587 734.892L64.6826 566.615L362.373 502.373L238.764 278.698L586.013 327.151C589.316 167.716 608.88 22.2113 667.414 2.87709Z" fill="#F9AE0B"/>
<path d="M823.826 486.496V1347.5H721.565V927.984H540.88V1347.5H439.389V486.496H540.88V877.196L592.395 825.638H721.565V486.496H823.826Z" fill="white"/>
<path d="M1273.41 486.496V588.843H1124.24V1347.5H1022.75V639.631L1073.5 588.843H873.592V486.496H1273.41Z" fill="white"/>
<path d="M1428.39 1347.5H1326.9V486.496H1428.39V1347.5Z" fill="white"/>
</svg>
