<svg width="2378" height="2235" viewBox="0 0 2378 2235" fill="none" xmlns="http://www.w3.org/2000/svg">
<path d="M904.979 64.2783C944.806 51.1239 986.695 62.6458 1019.36 76.543C1054.23 91.3815 1091.35 114.515 1127.92 140.998C1183.36 181.144 1242.34 232.509 1297.36 284.231C1323.51 243.287 1351.11 204.324 1378.74 172.26C1399.38 148.314 1421.71 126.224 1445.14 110.057C1467.78 94.4297 1497.87 79.9045 1532.07 82.3525H1532.07C1567.24 84.8705 1593.47 104.468 1611.33 125.335C1628.93 145.898 1642.1 171.71 1652.35 197.729C1669.48 241.199 1682.03 294.621 1691.4 348.767C1831.32 410.067 1905.48 529.117 1934.72 587.264L1958.62 589.849C1985.62 548.775 2038.41 530.487 2086.23 548.744H2086.23L2087.58 549.258L2087.59 549.263C2142.82 570.362 2170.5 632.245 2149.4 687.483C2145.78 696.96 2140.94 705.635 2135.14 713.396C2141.04 769.069 2128.02 836.773 2098.76 905.618C2067.99 978.009 2017.4 1056.43 1943.24 1132.06L2163.68 1316.2L2251.94 1389.93L2140.01 1416.3L1918.03 1468.6L2007.24 1623.31L2064.69 1722.93L1950.52 1709.11L1724.98 1681.82L1755.72 1857.36L1775.56 1970.64L1673.04 1918.54L1470.28 1815.51L1438.69 1990.88L1418.3 2104.06L1339.99 2019.84L1183.98 1852.05L1093.42 2007.22L1035.45 2106.54L990.772 2000.58L902.085 1790.22L764.36 1903.46L675.531 1976.5L670.398 1861.62L660.318 1636.04L493.487 1695.29L385.119 1733.78L419.35 1623.99L486.695 1407.99L309.527 1406.54L194.531 1405.6L264.28 1314.17L403.358 1131.86L235.604 1068.21L128.082 1027.42L225.229 965.877L418.135 843.671L282.593 726.043L195.739 650.668L308.151 626.41L530.23 578.484L444.035 422.511L388.411 321.858L502.308 337.751L786.429 377.396C789.477 319.123 795.292 263.347 805.383 216.395C812.238 184.5 821.68 153.653 835.398 128.091C848.741 103.23 870.32 75.727 904.978 64.2793L904.979 64.2783Z" fill="#FDFDFD" stroke="#F9AE0B" stroke-width="115"/>
<path d="M1079.42 602.497V1463.5H977.163V1043.99H796.478V1463.5H694.986V602.497H796.478V993.197L847.992 941.639H977.163V602.497H1079.42Z" fill="#F9AE0B"/>
<path d="M1529 602.497V704.843H1379.84V1463.5H1278.35V755.632L1329.1 704.843H1129.19V602.497H1529Z" fill="#F9AE0B"/>
<path d="M1683.99 1463.5H1582.49V602.497H1683.99V1463.5Z" fill="#F9AE0B"/>
</svg>
