<svg width="2208" height="1786" viewBox="0 0 2208 1786" fill="none" xmlns="http://www.w3.org/2000/svg">
<path fill-rule="evenodd" clip-rule="evenodd" d="M1102.05 0.023524C1152.13 -0.0983156 1230.63 -1.15411 1303.71 43.4347C1371.65 84.89 1421.72 155.941 1472.8 239.751L1478.14 248.543L1973.42 1127.09H1974.37L2045.14 1254.32L2207.25 1541.88L1959.94 1685.4L1959.88 1685.3L1940.69 1696.57L1241.38 1785.2H965.976L266.688 1696.58L247.431 1685.38L247.419 1685.4L0.107865 1541.88L0.292135 1541.55L0 1541.38L51.5415 1450.64L728.852 249.198L729.222 248.543L729.61 247.901C782.423 160.556 833.514 86.2272 903.647 43.4347C976.591 -1.07224 1051.59 -0.0991629 1102.05 0.023524ZM1009.03 911.616V1733.73H1199.65V911.616H1009.03ZM1101.1 50.6392C1049.81 50.5159 988.096 50.3863 928.352 86.84C869.709 122.621 823.982 186.808 770.815 274.74L65.9655 1525.03L228.037 1619.09L665.059 843.785H933.911V653.126H772.528L931.167 371.695C985.983 281.036 1011.21 255.796 1025.95 246.799C1036.17 240.565 1063.56 229.137 1101.69 229.137C1139.82 229.137 1169.27 240.565 1179.49 246.799C1194.23 255.796 1219.46 281.036 1274.27 371.695L1432.91 653.126H1271.53V843.785H1540.38L1977.4 1619.09L2139.47 1525.03L1434.62 274.74C1381.46 186.808 1335.73 122.621 1277.09 86.84C1217.34 50.3864 1152.38 50.5159 1101.1 50.6392ZM1009.01 653.154V843.813H1199.7V653.154H1009.01Z" fill="#FDFDFD"/>
</svg>
