<svg width="2222" height="2100" viewBox="0 0 2222 2100" fill="none" xmlns="http://www.w3.org/2000/svg">
<path d="M855.685 746.475C855.685 746.475 769.396 895.625 761.751 914.709C754.106 933.793 680.28 1278.12 1049.76 1432.76C1419.24 1587.39 1682.03 1346.08 1707.25 1290.96C1723.61 1255.18 1849.29 981.25 1935.47 793.398C1981.54 963.114 1985.93 1142.59 1942.31 1305.38C1820.04 1761.69 1351.01 2032.48 894.705 1910.21C665.139 1848.7 444.38 1685.37 305.43 1475.57C167.065 1266.65 115.69 1021.77 203.317 791.83C209.285 776.17 215.549 761.19 222.092 746.856C209.922 813.41 211.554 915.574 314.323 970.073C474.99 1055.27 638.004 873.06 659.349 834.129C680.693 795.198 731.086 712.05 731.086 712.05L855.685 746.475Z" fill="#FDFDFD"/>
<path d="M1486.8 194.756C1649.7 284.345 1776.43 427.811 1859.55 594.058L1000.2 477.45L917.947 626.977L789.691 598.767L867.827 458.24L646.881 427.487C715.393 413.904 787.625 407.017 861.69 402.589C896.341 400.517 930.624 399.004 964.989 397.466C999.058 395.941 1033.32 394.387 1066.5 392.25C1132.13 388.022 1198.63 381.262 1258.74 365.897C1318.94 350.506 1379.9 324.738 1428.34 277.449C1452.93 253.446 1472.38 225.778 1486.8 194.756Z" fill="#FDFDFD"/>
<path fill-rule="evenodd" clip-rule="evenodd" d="M1356.48 69.1106C1361.51 26.3927 1407.67 -15.801 1461.38 5.87329C1686.66 96.7913 1860.42 266.288 1974.61 469.396L2221.69 502.921L2096.13 776.571C2143.4 966.945 2145.27 1166.11 2096.85 1346.79C1951.72 1888.45 1394.95 2209.89 853.293 2064.76C583.379 1992.43 330.986 1803.91 172.034 1563.91C12.7027 1323.33 -56.5556 1024.45 53.8076 734.852C88.7344 643.204 133.133 568.369 184.601 507.358L344.572 245.069L580.396 277.892C671.627 256.702 764.01 248.04 850.38 242.867C884.842 240.804 923.196 239.085 955.878 237.621C990.089 236.088 1022.78 234.596 1054.12 232.573C1117.28 228.498 1171.73 222.428 1217.08 210.843C1262.35 199.277 1293.98 183.322 1315.32 162.668C1335.51 143.118 1351.1 114.938 1356.48 69.1106ZM1437.99 64.3684C1429.53 60.9512 1420.21 67.611 1419.23 76.6848C1386.13 383.301 953.519 249.965 579.941 343.072L377.843 315.302L243.041 536.323C191.728 593.941 146.185 669.393 111.5 760.406C-87.9859 1290.71 360.778 1865.78 866.625 2003.1L869.603 2003.9C1376.66 2139.77 1898.63 1836.74 2036 1330.48C2083.86 1151.87 2079.5 954.447 2028.8 767.509C2032.51 759.408 2036.1 751.595 2039.53 744.108L2126.06 555.518L1935.43 529.323C1828.1 324.978 1659.01 153.621 1437.99 64.3684Z" fill="#FDFDFD"/>
</svg>
