<svg width="4319" height="5562" viewBox="0 0 4319 5562" fill="none" xmlns="http://www.w3.org/2000/svg">
<path d="M2462.23 3398.22C2226.77 3070.03 1841.98 2856.24 1407.25 2856.24C972.517 2856.24 587.721 3070.03 352.266 3398.22H109.713V4105.16L109.728 4105.22L110.114 4105.11C109.736 4105.21 109.728 4105.22 109.728 4105.22C109.729 4105.22 109.73 4105.23 109.732 4105.23C109.735 4105.24 109.74 4105.26 109.746 4105.28C109.758 4105.32 109.776 4105.39 109.8 4105.47C109.848 4105.64 109.92 4105.89 110.018 4106.21C110.141 4106.62 110.306 4107.16 110.511 4107.81C109.98 4123.06 109.713 4138.39 109.713 4153.77C109.713 4870.38 690.639 5451.31 1407.25 5451.31C2123.86 5451.31 2704.78 4870.38 2704.78 4153.77C2704.78 4138.39 2704.51 4123.06 2703.98 4107.81C2704.19 4107.16 2704.35 4106.62 2704.48 4106.21C2704.58 4105.89 2704.65 4105.64 2704.7 4105.47C2704.72 4105.39 2704.74 4105.32 2704.75 4105.28C2704.76 4105.26 2704.76 4105.24 2704.76 4105.23C2704.77 4105.23 2704.77 4105.22 2704.77 4105.22C2704.77 4105.22 2704.76 4105.21 2704.38 4105.11L2704.77 4105.22L2704.78 4105.16V3398.22H2462.23ZM2254.66 3025.93L3869.2 2417.37L3048.47 2310.61L2254.66 3025.93ZM2814.5 4120.35L2814.14 4121.63C2814.37 4132.31 2814.5 4143.03 2814.5 4153.77C2814.5 4930.97 2184.45 5561.02 1407.25 5561.02C630.046 5561.02 0 4930.97 0 4153.77C0 4143.05 0.120709 4132.35 0.35928 4121.69L0 4120.42V3288.5H297.367C554.909 2958.62 956.31 2746.52 1407.25 2746.52C1665.63 2746.52 1907.74 2816.16 2115.85 2937.69L2843.12 0.187012L3546.3 1481.39L3447.19 1528.45L2875.78 324.799L2214.73 2994.82L3447.19 1528.45L3546.3 1481.39L3576.54 1545.07L3028.31 2197.35L3943.4 2316.39L4318.67 2365.2L2348.64 3107.75C2409.91 3162.93 2466.32 3223.43 2517.13 3288.5H2814.5V4120.35Z" fill="url(#paint0_linear_1923_240)"/>
<path d="M3576.54 1545.07L3028.31 2197.35L3943.4 2316.39L3576.54 1545.07Z" fill="url(#paint1_linear_1923_240)"/>
<path d="M2814.5 4120.35L2814.14 4121.63C2814.37 4132.31 2814.5 4143.03 2814.5 4153.77C2814.5 4930.97 2184.45 5561.02 1407.25 5561.02H4222.67C4275.69 5561.02 4318.67 5518.04 4318.67 5465.02V2365.2L2348.64 3107.75C2409.91 3162.93 2466.32 3223.43 2517.13 3288.5H2814.5V4120.35Z" fill="url(#paint2_linear_1923_240)"/>
<path d="M2462.23 3398.22C2226.77 3070.03 1841.98 2856.24 1407.25 2856.24C972.517 2856.24 587.721 3070.03 352.266 3398.22H109.713V4105.16L109.728 4105.22L110.114 4105.11C109.736 4105.21 109.728 4105.22 109.728 4105.22C109.729 4105.22 109.73 4105.23 109.732 4105.23C109.735 4105.24 109.74 4105.26 109.746 4105.28C109.758 4105.32 109.776 4105.39 109.8 4105.47C109.848 4105.64 109.92 4105.89 110.018 4106.21C110.141 4106.62 110.306 4107.16 110.511 4107.81C109.98 4123.06 109.713 4138.39 109.713 4153.77C109.713 4870.38 690.639 5451.31 1407.25 5451.31C2123.86 5451.31 2704.78 4870.38 2704.78 4153.77C2704.78 4138.39 2704.51 4123.06 2703.98 4107.81C2704.19 4107.16 2704.35 4106.62 2704.48 4106.21C2704.58 4105.89 2704.65 4105.64 2704.7 4105.47C2704.72 4105.39 2704.74 4105.32 2704.75 4105.28C2704.76 4105.26 2704.76 4105.24 2704.76 4105.23C2704.77 4105.23 2704.77 4105.22 2704.77 4105.22C2704.77 4105.22 2704.76 4105.21 2704.38 4105.11L2704.77 4105.22L2704.78 4105.16V3398.22H2462.23ZM2254.66 3025.93L3869.2 2417.37L3048.47 2310.61L2254.66 3025.93ZM2814.5 4120.35L2814.14 4121.63C2814.37 4132.31 2814.5 4143.03 2814.5 4153.77C2814.5 4930.97 2184.45 5561.02 1407.25 5561.02C630.046 5561.02 0 4930.97 0 4153.77C0 4143.05 0.120709 4132.35 0.35928 4121.69L0 4120.42V3288.5H297.367C554.909 2958.62 956.31 2746.52 1407.25 2746.52C1665.63 2746.52 1907.74 2816.16 2115.85 2937.69L2843.12 0.187012L3546.3 1481.39L3447.19 1528.45L2875.78 324.799L2214.73 2994.82L3447.19 1528.45L3546.3 1481.39L3576.54 1545.07L3028.31 2197.35L3943.4 2316.39L4318.67 2365.2L2348.64 3107.75C2409.91 3162.93 2466.32 3223.43 2517.13 3288.5H2814.5V4120.35Z" fill="url(#paint3_linear_1923_240)"/>
<path d="M2814.5 4120.35L2814.14 4121.63C2814.37 4132.31 2814.5 4143.03 2814.5 4153.77C2814.5 4930.97 2184.45 5561.02 1407.25 5561.02H4222.67C4275.69 5561.02 4318.67 5518.04 4318.67 5465.02V2365.2L2348.64 3107.75C2409.91 3162.93 2466.32 3223.43 2517.13 3288.5H2814.5V4120.35Z" fill="url(#paint4_linear_1923_240)"/>
<path d="M2606.03 4109C2590.6 4109 2582.89 4101.29 2582.89 4085.86L2581.96 3785.02C2581.96 3778.85 2583.2 3773.91 2585.66 3770.21C2588.13 3765.89 2591.53 3760.95 2595.85 3755.4L2888.35 3399.02V3211.11L2595.85 3098.18C2586.59 3095.1 2581.96 3085.84 2581.96 3070.41V2898.24C2581.96 2882.81 2589.67 2875.1 2605.1 2875.1H2839.29C2847.93 2875.1 2854.72 2876.33 2859.66 2878.8C2864.59 2881.27 2870.15 2884.05 2876.32 2887.13L3181.79 3021.35C3189.81 3024.44 3194.44 3028.76 3195.67 3034.31C3196.91 3039.87 3197.52 3047.89 3197.52 3058.38V3458.26C3197.52 3464.43 3195.98 3469.06 3192.89 3472.15C3190.43 3474.62 3186.72 3479.24 3181.79 3486.03L2892.06 3838.71V3875.73H3223.44C3238.87 3875.73 3246.58 3883.45 3246.58 3898.88V4085.86C3246.58 4101.29 3238.87 4109 3223.44 4109H2606.03Z" fill="url(#paint5_linear_1923_240)"/>
<path d="M3485.47 4109C3450.3 4109 3426.23 4101.9 3413.27 4087.71C3400.93 4072.9 3394.76 4051.61 3394.76 4023.84V2961.19C3394.76 2933.42 3400.93 2912.43 3413.27 2898.24C3426.23 2883.43 3450.3 2876.03 3485.47 2876.03L4121.4 2873.25C4157.19 2873.25 4181.26 2880.65 4193.6 2895.46C4205.94 2909.66 4212.11 2930.64 4212.11 2958.41V4023.84C4212.11 4051.61 4205.94 4072.9 4193.6 4087.71C4181.26 4101.9 4157.19 4109 4121.4 4109H3485.47ZM3703 3877.59H3903.87V3104.66H3703V3877.59Z" fill="url(#paint6_linear_1923_240)"/>
<path d="M2606.03 5460C2590.6 5460 2582.89 5452.29 2582.89 5436.86L2581.96 5136.02C2581.96 5129.85 2583.2 5124.91 2585.66 5121.21C2588.13 5116.89 2591.53 5111.95 2595.85 5106.4L2888.35 4750.02V4562.11L2595.85 4449.18C2586.59 4446.1 2581.96 4436.84 2581.96 4421.41V4249.24C2581.96 4233.81 2589.67 4226.1 2605.1 4226.1H2839.29C2847.93 4226.1 2854.72 4227.33 2859.66 4229.8C2864.59 4232.27 2870.15 4235.05 2876.32 4238.13L3181.79 4372.35C3189.81 4375.44 3194.44 4379.76 3195.67 4385.31C3196.91 4390.87 3197.52 4398.89 3197.52 4409.38V4809.26C3197.52 4815.43 3195.98 4820.06 3192.89 4823.15C3190.43 4825.62 3186.72 4830.24 3181.79 4837.03L2892.06 5189.71V5226.73H3223.44C3238.87 5226.73 3246.58 5234.45 3246.58 5249.88V5436.86C3246.58 5452.29 3238.87 5460 3223.44 5460H2606.03Z" fill="url(#paint7_linear_1923_240)"/>
<path d="M3489.7 5460C3474.27 5460 3466.56 5452.29 3466.56 5436.86V5251.73C3466.56 5236.3 3474.27 5228.59 3489.7 5228.59H3902.54V4966.62H3489.7C3474.27 4966.62 3466.56 4958.91 3466.56 4943.48L3467.48 4249.24C3467.48 4233.81 3475.2 4226.1 3490.63 4226.1H4188.57C4204 4226.1 4211.71 4233.81 4211.71 4249.24V4434.37C4211.71 4449.8 4204 4457.51 4188.57 4457.51H3776.65V4719.47H4188.57C4204 4719.47 4211.71 4727.19 4211.71 4742.62V5223.96C4211.71 5235.07 4208.01 5244.94 4200.6 5253.58L4004.37 5448.89C3997.58 5456.3 3988.01 5460 3975.67 5460H3489.7Z" fill="url(#paint8_linear_1923_240)"/>
<path d="M2462.23 3398.22C2226.77 3070.03 1841.98 2856.24 1407.25 2856.24C972.517 2856.24 587.721 3070.03 352.266 3398.22H109.713V4105.16L109.728 4105.22L110.114 4105.11C109.736 4105.21 109.728 4105.22 109.728 4105.22C109.729 4105.22 109.73 4105.23 109.732 4105.23C109.735 4105.24 109.74 4105.26 109.746 4105.28C109.758 4105.32 109.776 4105.39 109.8 4105.47C109.848 4105.64 109.92 4105.89 110.018 4106.21C110.141 4106.62 110.306 4107.16 110.511 4107.81C109.98 4123.06 109.713 4138.39 109.713 4153.77C109.713 4870.38 690.639 5451.31 1407.25 5451.31C2123.86 5451.31 2704.78 4870.38 2704.78 4153.77C2704.78 4138.39 2704.51 4123.06 2703.98 4107.81C2704.19 4107.16 2704.35 4106.62 2704.48 4106.21C2704.58 4105.89 2704.65 4105.64 2704.7 4105.47C2704.72 4105.39 2704.74 4105.32 2704.75 4105.28C2704.76 4105.26 2704.76 4105.24 2704.76 4105.23C2704.77 4105.23 2704.77 4105.22 2704.77 4105.22C2704.77 4105.22 2704.76 4105.21 2704.38 4105.11L2704.77 4105.22L2704.78 4105.16V3398.22H2462.23ZM2254.66 3025.93L3869.2 2417.37L3048.47 2310.61L2254.66 3025.93ZM2814.5 4120.35L2814.14 4121.63C2814.37 4132.31 2814.5 4143.03 2814.5 4153.77C2814.5 4930.97 2184.45 5561.02 1407.25 5561.02C630.046 5561.02 0 4930.97 0 4153.77C0 4143.05 0.120709 4132.35 0.35928 4121.69L0 4120.42V3288.5H297.367C554.909 2958.62 956.31 2746.52 1407.25 2746.52C1665.63 2746.52 1907.74 2816.16 2115.85 2937.69L2843.12 0.187012L3546.3 1481.39L3447.19 1528.45L2875.78 324.799L2214.73 2994.82L3447.19 1528.45L3546.3 1481.39L3576.54 1545.07L3028.31 2197.35L3943.4 2316.39L4318.67 2365.2L2348.64 3107.75C2409.91 3162.93 2466.32 3223.43 2517.13 3288.5H2814.5V4120.35Z" fill="url(#paint9_linear_1923_240)"/>
<path d="M2704.79 4153.77C2704.79 4870.38 2123.86 5451.31 1407.25 5451.31C690.641 5451.31 109.715 4870.38 109.715 4153.77C109.715 3437.16 690.641 2856.24 1407.25 2856.24C2123.86 2856.24 2704.79 3437.16 2704.79 4153.77Z" fill="url(#paint10_linear_1923_240)"/>
<path d="M1286.45 3619.8H1528.05V3398.22H2704.79V4105.16L2704.77 4105.22L2704.38 4105.11C2704.76 4105.21 2704.77 4105.22 2704.77 4105.22C2704.77 4105.22 2704.77 4105.23 2704.77 4105.23C2704.76 4105.24 2704.76 4105.26 2704.75 4105.28C2704.74 4105.32 2704.72 4105.39 2704.7 4105.47C2704.65 4105.64 2704.58 4105.89 2704.48 4106.21C2704.28 4106.87 2703.98 4107.84 2703.57 4109.11C2702.75 4111.64 2701.48 4115.36 2699.69 4120.08C2696.11 4129.54 2690.45 4143.04 2682.12 4159.23C2665.46 4191.63 2638.11 4234.81 2595.35 4278C2509.84 4364.38 2362.75 4450.73 2116.42 4450.73C1870.09 4450.73 1723 4364.38 1637.48 4278C1594.73 4234.81 1567.38 4191.63 1550.72 4159.23C1542.39 4143.04 1536.72 4129.54 1533.15 4120.08C1531.36 4115.36 1530.09 4111.64 1529.27 4109.11C1528.86 4107.84 1528.56 4106.87 1528.36 4106.21C1528.26 4105.89 1528.19 4105.64 1528.14 4105.47C1528.12 4105.39 1528.1 4105.32 1528.09 4105.28C1528.08 4105.26 1528.08 4105.24 1528.07 4105.23C1528.07 4105.23 1528.07 4105.22 1528.07 4105.22C1528.07 4105.22 1528.08 4105.21 1528.45 4105.11L1528.07 4105.22L1528.05 4105.16V3788.39H1286.45V4105.16L1286.43 4105.22L1286.05 4105.11C1286.42 4105.21 1286.43 4105.22 1286.43 4105.22C1286.43 4105.22 1286.43 4105.23 1286.43 4105.23C1286.42 4105.24 1286.42 4105.26 1286.41 4105.28C1286.4 4105.32 1286.38 4105.39 1286.36 4105.47C1286.31 4105.64 1286.24 4105.89 1286.14 4106.21C1285.94 4106.87 1285.64 4107.84 1285.23 4109.11C1284.41 4111.64 1283.14 4115.36 1281.35 4120.08C1277.78 4129.54 1272.11 4143.04 1263.78 4159.23C1247.12 4191.63 1219.77 4234.81 1177.02 4278C1091.5 4364.38 944.409 4450.73 698.081 4450.73C451.753 4450.73 304.658 4364.38 219.146 4278C176.395 4234.81 149.043 4191.63 132.379 4159.23C124.047 4143.04 118.385 4129.54 114.807 4120.08C113.018 4115.36 111.749 4111.64 110.927 4109.11C110.517 4107.84 110.217 4106.87 110.021 4106.21C109.922 4105.89 109.85 4105.64 109.802 4105.47C109.778 4105.39 109.76 4105.32 109.748 4105.28C109.742 4105.26 109.737 4105.24 109.734 4105.23C109.733 4105.23 109.731 4105.22 109.731 4105.22C109.73 4105.22 109.738 4105.21 110.116 4105.11L109.73 4105.22L109.715 4105.16V3398.22H1286.45V3619.8Z" fill="url(#paint11_linear_1923_240)"/>
<path d="M1582.15 4542.08C1586.62 4542.08 1588.86 4543.82 1588.86 4547.3V4620.46C1588.86 4623.95 1586.62 4625.69 1582.15 4625.69H1500.33V4643.04H1582.15C1586.62 4643.04 1588.86 4644.78 1588.86 4648.26V4714.53C1588.86 4718.01 1586.62 4719.75 1582.15 4719.75H1500.33V4737.1H1582.15C1586.62 4737.1 1588.86 4738.84 1588.86 4742.33V5307.48C1532.47 5314.44 1472.82 5318.19 1409.72 5318.19L1404.39 5318.18C1399.15 5318.16 1393.93 5318.12 1388.74 5318.05V4547.3C1388.74 4543.82 1390.97 4542.08 1395.44 4542.08H1582.15Z" fill="url(#paint12_linear_1923_240)"/>
<path fill-rule="evenodd" clip-rule="evenodd" d="M1297.68 4542.08C1301.79 4542.08 1305.37 4543.19 1308.41 4545.42L1362.06 4587.23C1365.1 4589.6 1366.62 4592.39 1366.62 4595.59V4734.25C1366.62 4737.59 1365.1 4740.38 1362.06 4742.61L1308.41 4784.42C1305.37 4786.78 1301.79 4787.97 1297.68 4787.97H1236.79V5308.24C1198.09 5303.65 1160.91 5297.54 1125.19 5290.09V4547.3C1125.19 4543.82 1127.43 4542.08 1131.9 4542.08H1297.68ZM1243.49 4631.48C1236.34 4631.48 1229.49 4633.29 1224.84 4636.91V4666.51C1229.49 4670.14 1236.34 4671.95 1243.49 4671.95C1250.83 4671.95 1257.68 4670.14 1262.15 4666.51V4636.91C1257.68 4633.29 1250.83 4631.48 1243.49 4631.48Z" fill="url(#paint13_linear_1923_240)"/>
<path d="M1838.99 4542.08C1843.47 4542.08 1845.7 4543.82 1845.7 4547.3V5247.7C1796.68 5265.13 1744.26 5279.87 1688.23 5291.29V4744.49C1688.23 4741.85 1689.13 4739.75 1690.91 4738.22L1730.62 4707.29C1732.76 4705.75 1733.84 4703.52 1733.84 4700.6V4547.3C1733.84 4543.82 1736.07 4542.08 1740.54 4542.08H1838.99Z" fill="url(#paint14_linear_1923_240)"/>
<path fill-rule="evenodd" clip-rule="evenodd" d="M1028.79 4542.08C1032.73 4542.08 1035.59 4543.12 1037.38 4545.21L1101.22 4615.45C1103.01 4617.4 1103.91 4619.49 1103.91 4621.72V5285.45C1064.95 5276.6 1027.78 5266.13 992.31 5254.27V4737.1H969.776V5246.48C930.441 5232.39 893.279 5216.57 858.18 5199.37V4621.72C858.18 4619.49 859.074 4617.4 860.862 4615.45L924.172 4545.21C926.139 4543.12 929.001 4542.08 932.756 4542.08H1028.79ZM981.043 4631.62C973.353 4631.62 967.094 4633.5 962.265 4637.27V4666.32C967.094 4670.08 973.353 4671.96 981.043 4671.96C988.733 4671.96 994.993 4670.08 999.822 4666.32V4637.27C994.993 4633.5 988.733 4631.62 981.043 4631.62Z" fill="url(#paint15_linear_1923_240)"/>
<path fill-rule="evenodd" clip-rule="evenodd" d="M2038.76 4542.08C2042.7 4542.08 2045.56 4543.12 2047.35 4545.21L2111.19 4615.45C2112.98 4617.4 2113.87 4619.49 2113.87 4621.72V5106.63C2079.49 5131.73 2042.35 5155.57 2002.28 5177.58V4737.1H1979.74V5189.6C1944.74 5207.73 1907.58 5224.46 1868.15 5239.45V4621.72C1868.15 4619.49 1869.04 4617.4 1870.83 4615.45L1934.14 4545.21C1936.11 4543.12 1938.97 4542.08 1942.72 4542.08H2038.76ZM1991.01 4631.62C1983.32 4631.62 1977.06 4633.5 1972.23 4637.27V4666.32C1977.06 4670.08 1983.32 4671.96 1991.01 4671.96C1998.7 4671.96 2004.96 4670.08 2009.79 4666.32V4637.27C2004.96 4633.5 1998.7 4631.62 1991.01 4631.62Z" fill="url(#paint16_linear_1923_240)"/>
<path fill-rule="evenodd" clip-rule="evenodd" d="M752.47 4542.08C757.12 4542.08 760.697 4542.98 763.201 4544.8L824.901 4592.46C826.868 4593.85 828.12 4595.03 828.656 4596.01C829.193 4596.98 829.461 4598.59 829.461 4600.82V4658.09C829.461 4659.9 827.941 4661.99 824.901 4664.36L787.881 4693.21L781.979 4697.39L798.611 4716.83L832.144 4766.99C833.038 4768.25 833.575 4769.5 833.753 4770.75C834.111 4771.87 834.29 4773.33 834.29 4775.15V5187.28C798.974 5168.85 765.838 5149 734.765 5128.11L734.766 4783.44L698.013 4742.95H693.453V5098.85C652.399 5068.25 615.31 5035.9 581.856 5002.81V4547.3C581.856 4543.82 584.092 4542.08 588.563 4542.08H752.47ZM705.525 4631.38C698.371 4631.38 692.47 4633.19 687.82 4636.81V4666.42C692.47 4670.04 698.371 4671.85 705.525 4671.85C712.857 4671.85 718.759 4670.04 723.23 4666.42V4636.81C718.759 4633.19 712.857 4631.38 705.525 4631.38Z" fill="url(#paint17_linear_1923_240)"/>
<path d="M2264.1 4542.08C2268.39 4542.08 2271.97 4543.19 2274.83 4545.42L2320.17 4580.75H2332.51L2377.84 4545.42C2380.7 4543.19 2384.28 4542.08 2388.57 4542.08H2447.59C2451.7 4542.08 2455.28 4543.19 2458.32 4545.42L2501.46 4579.03C2486.43 4623.01 2456.48 4698.64 2404.67 4785.21V4643.04H2382.13V4821.33C2351.61 4868.31 2314.75 4917.54 2270.54 4965.98V4643.04H2248V4989.93C2214.75 5024.21 2177.67 5057.83 2136.41 5089.71V4595.59C2136.41 4592.39 2137.84 4589.6 2140.7 4587.23L2194.35 4545.42C2197.39 4543.19 2200.97 4542.08 2205.08 4542.08H2264.1Z" fill="url(#paint18_linear_1923_240)"/>
<path d="M534.614 4542.08C539.084 4542.08 541.32 4543.82 541.32 4547.3V4620.46C541.32 4623.95 539.084 4625.69 534.614 4625.69H424.358C421.854 4625.69 419.708 4626.39 417.92 4627.78C416.131 4629.03 415.237 4630.64 415.237 4632.59V4712.46C415.237 4714.27 416.131 4715.87 417.92 4717.26C419.708 4718.66 421.854 4719.35 424.358 4719.35H462.182V4703.21L439.917 4702.79C435.446 4702.79 433.211 4701.05 433.211 4697.56V4645.31C433.211 4641.82 435.446 4640.08 439.917 4640.08H553.928C558.399 4640.08 560.635 4641.82 560.635 4645.31V4981.21C412.47 4826.21 341.228 4659.84 313.886 4582.59L361.585 4545.42C364.625 4543.19 368.202 4542.08 372.315 4542.08H534.614Z" fill="url(#paint19_linear_1923_240)"/>
<path d="M2875.78 324.799L2214.74 2994.82L3447.2 1528.45L2875.78 324.799Z" fill="url(#paint20_linear_1923_240)"/>
<path d="M3048.47 2310.61L2254.66 3025.93L3869.2 2417.37L3048.47 2310.61Z" fill="url(#paint21_linear_1923_240)"/>
<defs>
<linearGradient id="paint0_linear_1923_240" x1="2887.27" y1="324.799" x2="2887.27" y2="5451.31" gradientUnits="userSpaceOnUse">
<stop stop-color="#022D4B"/>
<stop offset="1" stop-color="#13062D"/>
</linearGradient>
<linearGradient id="paint1_linear_1923_240" x1="2887.27" y1="324.799" x2="2887.27" y2="5451.31" gradientUnits="userSpaceOnUse">
<stop stop-color="#022D4B"/>
<stop offset="1" stop-color="#13062D"/>
</linearGradient>
<linearGradient id="paint2_linear_1923_240" x1="2887.27" y1="324.799" x2="2887.27" y2="5451.31" gradientUnits="userSpaceOnUse">
<stop stop-color="#022D4B"/>
<stop offset="1" stop-color="#13062D"/>
</linearGradient>
<linearGradient id="paint3_linear_1923_240" x1="2887.27" y1="324.799" x2="2887.27" y2="5451.31" gradientUnits="userSpaceOnUse">
<stop stop-color="#022D4B"/>
<stop offset="1" stop-color="#13062D"/>
</linearGradient>
<linearGradient id="paint4_linear_1923_240" x1="2887.27" y1="324.799" x2="2887.27" y2="5451.31" gradientUnits="userSpaceOnUse">
<stop stop-color="#022D4B"/>
<stop offset="1" stop-color="#13062D"/>
</linearGradient>
<linearGradient id="paint5_linear_1923_240" x1="4080.03" y1="4024.46" x2="2500.74" y2="5383.82" gradientUnits="userSpaceOnUse">
<stop stop-color="#FDFDFD"/>
<stop offset="1" stop-color="#9BB9E1"/>
</linearGradient>
<linearGradient id="paint6_linear_1923_240" x1="4080.03" y1="4024.46" x2="2500.74" y2="5383.82" gradientUnits="userSpaceOnUse">
<stop stop-color="#FDFDFD"/>
<stop offset="1" stop-color="#9BB9E1"/>
</linearGradient>
<linearGradient id="paint7_linear_1923_240" x1="4080.03" y1="4024.46" x2="2500.74" y2="5383.82" gradientUnits="userSpaceOnUse">
<stop stop-color="#FDFDFD"/>
<stop offset="1" stop-color="#9BB9E1"/>
</linearGradient>
<linearGradient id="paint8_linear_1923_240" x1="4080.03" y1="4024.46" x2="2500.74" y2="5383.82" gradientUnits="userSpaceOnUse">
<stop stop-color="#FDFDFD"/>
<stop offset="1" stop-color="#9BB9E1"/>
</linearGradient>
<linearGradient id="paint9_linear_1923_240" x1="2887.27" y1="324.799" x2="2887.27" y2="5451.31" gradientUnits="userSpaceOnUse">
<stop stop-color="#022D4B"/>
<stop offset="1" stop-color="#13062D"/>
</linearGradient>
<linearGradient id="paint10_linear_1923_240" x1="109.715" y1="1290.27" x2="2310.55" y2="5102.23" gradientUnits="userSpaceOnUse">
<stop stop-color="#F03B3E"/>
<stop offset="0.764423" stop-color="#EF2178"/>
</linearGradient>
<linearGradient id="paint11_linear_1923_240" x1="1395.18" y1="3404.43" x2="1395.18" y2="5320.38" gradientUnits="userSpaceOnUse">
<stop stop-color="#FDFDFD"/>
<stop offset="1" stop-color="#9BB9E1"/>
</linearGradient>
<linearGradient id="paint12_linear_1923_240" x1="1395.18" y1="4537.77" x2="1395.18" y2="5320.38" gradientUnits="userSpaceOnUse">
<stop stop-color="#FDFDFD"/>
<stop offset="1" stop-color="#9BB9E1"/>
</linearGradient>
<linearGradient id="paint13_linear_1923_240" x1="1395.18" y1="4537.77" x2="1395.18" y2="5320.38" gradientUnits="userSpaceOnUse">
<stop stop-color="#FDFDFD"/>
<stop offset="1" stop-color="#9BB9E1"/>
</linearGradient>
<linearGradient id="paint14_linear_1923_240" x1="1395.18" y1="4537.77" x2="1395.18" y2="5320.38" gradientUnits="userSpaceOnUse">
<stop stop-color="#FDFDFD"/>
<stop offset="1" stop-color="#9BB9E1"/>
</linearGradient>
<linearGradient id="paint15_linear_1923_240" x1="1395.18" y1="4537.77" x2="1395.18" y2="5320.38" gradientUnits="userSpaceOnUse">
<stop stop-color="#FDFDFD"/>
<stop offset="1" stop-color="#9BB9E1"/>
</linearGradient>
<linearGradient id="paint16_linear_1923_240" x1="1395.18" y1="4537.77" x2="1395.18" y2="5320.38" gradientUnits="userSpaceOnUse">
<stop stop-color="#FDFDFD"/>
<stop offset="1" stop-color="#9BB9E1"/>
</linearGradient>
<linearGradient id="paint17_linear_1923_240" x1="1395.18" y1="4537.77" x2="1395.18" y2="5320.38" gradientUnits="userSpaceOnUse">
<stop stop-color="#FDFDFD"/>
<stop offset="1" stop-color="#9BB9E1"/>
</linearGradient>
<linearGradient id="paint18_linear_1923_240" x1="1395.18" y1="4537.77" x2="1395.18" y2="5320.38" gradientUnits="userSpaceOnUse">
<stop stop-color="#FDFDFD"/>
<stop offset="1" stop-color="#9BB9E1"/>
</linearGradient>
<linearGradient id="paint19_linear_1923_240" x1="1395.18" y1="4537.77" x2="1395.18" y2="5320.38" gradientUnits="userSpaceOnUse">
<stop stop-color="#FDFDFD"/>
<stop offset="1" stop-color="#9BB9E1"/>
</linearGradient>
<linearGradient id="paint20_linear_1923_240" x1="109.715" y1="1290.27" x2="2310.55" y2="5102.23" gradientUnits="userSpaceOnUse">
<stop stop-color="#F03B3E"/>
<stop offset="0.764423" stop-color="#EF2178"/>
</linearGradient>
<linearGradient id="paint21_linear_1923_240" x1="109.715" y1="1290.27" x2="2310.55" y2="5102.23" gradientUnits="userSpaceOnUse">
<stop stop-color="#F03B3E"/>
<stop offset="0.764423" stop-color="#EF2178"/>
</linearGradient>
</defs>
</svg>
