<svg width="4601" height="5760" viewBox="0 0 4601 5760" fill="none" xmlns="http://www.w3.org/2000/svg">
<path fill-rule="evenodd" clip-rule="evenodd" d="M3576.19 1544.16L3576.69 1543.57L3941.51 2315.95L4317.17 2364.82L4319.07 2364.1L4600.8 3082.74L3136.26 3634.75L3340.61 3855.43V4552.49L3340.66 4554.75V4554.76L3340.68 4557.05V4557.06L3340.7 4559.38V4559.39L3340.7 4561.74V4561.74L3340.7 4564.11V4564.11L3340.69 4566.49V4566.49L3340.63 4575.93L3340.62 4578.23L3340.61 4580.5V4580.52L3340.61 4580.55L3329.85 4740.5L3329.85 4740.55L3329.84 4740.6L3298.49 4894.01L3298.48 4894.05L3298.47 4894.1L3247.94 5039.57L3247.92 5039.61L3247.9 5039.66L3179.6 5175.77L3179.58 5175.81L3179.55 5175.85L3094.88 5301.22L3094.85 5301.26L3094.82 5301.29L2995.18 5414.5L2995.15 5414.53L2995.11 5414.56L2881.91 5514.21L2881.87 5514.24L2881.83 5514.26L2756.47 5598.94L2756.43 5598.96L2756.39 5598.98L2620.27 5667.29L2620.23 5667.31L2620.18 5667.32L2474.72 5717.85L2474.67 5717.87L2474.62 5717.88L2321.21 5749.22L2321.16 5749.23L2321.11 5749.24L2161.16 5760L2161.11 5760L2161.06 5760L2001.11 5749.24L2001.06 5749.23L2001.01 5749.22L1847.6 5717.88L1847.58 5717.87L1847.57 5717.87L1032.95 5511.3L1033.12 5510.55C437.519 5346.71 0 4801.24 0 4153.58C0 4142.86 0.120709 4132.17 0.35928 4121.5L0 4120.24V3288.32H297.367C554.909 2958.44 956.31 2746.34 1407.25 2746.34C1665.63 2746.34 1907.74 2815.97 2115.85 2937.5L2843.12 0L3576.19 1544.16ZM1407.25 2856.05C972.517 2856.05 587.721 3069.85 352.266 3398.03H109.713V4104.98L109.728 4105.03L110.114 4104.92C109.736 4105.03 109.728 4105.03 109.728 4105.03C109.729 4105.04 109.73 4105.04 109.732 4105.05C109.735 4105.06 109.74 4105.07 109.746 4105.09C109.758 4105.14 109.776 4105.2 109.8 4105.28C109.848 4105.45 109.92 4105.7 110.018 4106.03C110.141 4106.44 110.306 4106.97 110.511 4107.62C109.98 4122.88 109.713 4138.2 109.713 4153.58C109.713 4870.19 690.639 5451.12 1407.25 5451.12C2123.86 5451.12 2704.78 4870.19 2704.78 4153.58C2704.78 4138.2 2704.51 4122.88 2703.98 4107.62C2704.19 4106.97 2704.35 4106.44 2704.48 4106.03C2704.58 4105.7 2704.65 4105.45 2704.7 4105.28C2704.72 4105.2 2704.74 4105.14 2704.75 4105.09C2704.76 4105.07 2704.76 4105.06 2704.76 4105.05C2704.77 4105.04 2704.77 4105.04 2704.77 4105.03C2704.77 4105.03 2704.76 4105.03 2704.38 4104.92L2704.77 4105.03L2704.78 4104.98V3474.98L2626.98 3398.03H2462.23C2226.77 3069.85 1841.98 2856.05 1407.25 2856.05ZM2254.66 3025.74L3311.06 2627.56L3107.07 2318.04L3048.47 2310.42L2254.66 3025.74ZM2214.73 2994.64L3447.19 1528.26L2875.78 324.612L2214.73 2994.64Z" fill="url(#paint0_linear_1923_235)"/>
<path d="M2704.78 4153.58C2704.78 4870.19 2123.85 5451.12 1407.25 5451.12C690.637 5451.12 109.711 4870.19 109.711 4153.58C109.711 3436.98 690.637 2856.05 1407.25 2856.05C2123.85 2856.05 2704.78 3436.98 2704.78 4153.58Z" fill="url(#paint1_linear_1923_235)"/>
<path d="M1286.44 3619.61H1528.05V3398.03H2704.78V4104.98L2704.77 4105.03L2704.38 4104.92C2704.76 4105.03 2704.77 4105.03 2704.77 4105.03C2704.76 4105.04 2704.76 4105.04 2704.76 4105.05C2704.76 4105.06 2704.75 4105.07 2704.75 4105.09C2704.74 4105.14 2704.72 4105.2 2704.69 4105.28C2704.65 4105.45 2704.57 4105.7 2704.48 4106.03C2704.28 4106.68 2703.98 4107.66 2703.57 4108.92C2702.75 4111.46 2701.48 4115.17 2699.69 4119.9C2696.11 4129.35 2690.45 4142.85 2682.12 4159.05C2665.45 4191.44 2638.1 4234.63 2595.35 4277.81C2509.84 4364.19 2362.74 4450.54 2116.42 4450.54C1870.09 4450.54 1722.99 4364.19 1637.48 4277.81C1594.73 4234.63 1567.38 4191.44 1550.71 4159.05C1542.38 4142.85 1536.72 4129.35 1533.14 4119.9C1531.35 4115.17 1530.08 4111.46 1529.26 4108.92C1528.85 4107.66 1528.55 4106.68 1528.36 4106.03C1528.26 4105.7 1528.18 4105.45 1528.14 4105.28C1528.11 4105.2 1528.09 4105.14 1528.08 4105.09C1528.08 4105.07 1528.07 4105.06 1528.07 4105.05C1528.07 4105.04 1528.07 4105.04 1528.07 4105.03C1528.06 4105.03 1528.07 4105.03 1528.45 4104.92L1528.06 4105.03L1528.05 4104.98V3788.21H1286.44V4104.98L1286.43 4105.03L1286.04 4104.92C1286.42 4105.03 1286.43 4105.03 1286.43 4105.03C1286.43 4105.04 1286.42 4105.04 1286.42 4105.05C1286.42 4105.06 1286.42 4105.07 1286.41 4105.09C1286.4 4105.14 1286.38 4105.2 1286.36 4105.28C1286.31 4105.45 1286.23 4105.7 1286.14 4106.03C1285.94 4106.68 1285.64 4107.66 1285.23 4108.92C1284.41 4111.46 1283.14 4115.17 1281.35 4119.9C1277.77 4129.35 1272.11 4142.85 1263.78 4159.05C1247.11 4191.44 1219.76 4234.63 1177.01 4277.81C1091.5 4364.19 944.405 4450.54 698.077 4450.54C451.749 4450.54 304.654 4364.19 219.142 4277.81C176.391 4234.63 149.039 4191.44 132.375 4159.05C124.043 4142.85 118.381 4129.35 114.803 4119.9C113.014 4115.17 111.745 4111.46 110.924 4108.92C110.513 4107.66 110.213 4106.68 110.017 4106.03C109.918 4105.7 109.846 4105.45 109.798 4105.28C109.774 4105.2 109.756 4105.14 109.744 4105.09C109.738 4105.07 109.734 4105.06 109.731 4105.05C109.729 4105.04 109.727 4105.04 109.727 4105.03C109.726 4105.03 109.734 4105.03 110.112 4104.92L109.726 4105.03L109.711 4104.98V3398.03H1286.44V3619.61Z" fill="url(#paint2_linear_1923_235)"/>
<path d="M1582.15 4541.89C1586.62 4541.89 1588.85 4543.63 1588.85 4547.12V4620.28C1588.85 4623.76 1586.62 4625.5 1582.15 4625.5H1500.33V4642.85H1582.15C1586.62 4642.85 1588.85 4644.59 1588.85 4648.08V4714.34C1588.85 4717.82 1586.62 4719.57 1582.15 4719.57H1500.33V4736.92H1582.15C1586.62 4736.92 1588.85 4738.66 1588.85 4742.14V5307.29C1532.47 5314.26 1472.81 5318 1409.71 5318L1404.39 5317.99C1399.14 5317.98 1393.93 5317.93 1388.73 5317.86V4547.12C1388.73 4543.63 1390.97 4541.89 1395.44 4541.89H1582.15Z" fill="url(#paint3_linear_1923_235)"/>
<path fill-rule="evenodd" clip-rule="evenodd" d="M1297.68 4541.89C1301.79 4541.89 1305.37 4543.01 1308.41 4545.24L1362.06 4587.04C1365.1 4589.41 1366.62 4592.2 1366.62 4595.4V4734.06C1366.62 4737.41 1365.1 4740.19 1362.06 4742.42L1308.41 4784.23C1305.37 4786.6 1301.79 4787.78 1297.68 4787.78H1236.78V5308.05C1198.09 5303.46 1160.9 5297.35 1125.19 5289.9V4547.12C1125.19 4543.63 1127.42 4541.89 1131.89 4541.89H1297.68ZM1243.49 4631.29C1236.34 4631.29 1229.48 4633.1 1224.83 4636.73V4666.33C1229.48 4669.95 1236.34 4671.76 1243.49 4671.76C1250.82 4671.76 1257.67 4669.95 1262.14 4666.33V4636.73C1257.67 4633.1 1250.82 4631.29 1243.49 4631.29Z" fill="url(#paint4_linear_1923_235)"/>
<path d="M1838.99 4541.89C1843.46 4541.89 1845.7 4543.63 1845.7 4547.12V5247.52C1796.67 5264.94 1744.25 5279.68 1688.23 5291.1V4744.31C1688.23 4741.66 1689.12 4739.57 1690.91 4738.04L1730.61 4707.1C1732.76 4705.57 1733.83 4703.34 1733.83 4700.41V4547.12C1733.83 4543.63 1736.07 4541.89 1740.54 4541.89H1838.99Z" fill="url(#paint5_linear_1923_235)"/>
<path fill-rule="evenodd" clip-rule="evenodd" d="M1028.79 4541.89C1032.72 4541.89 1035.59 4542.94 1037.37 4545.03L1101.22 4615.26C1103.01 4617.21 1103.9 4619.3 1103.9 4621.53V5285.26C1064.95 5276.41 1027.77 5265.95 992.306 5254.09V4736.92H969.773V5246.29C930.437 5232.2 893.275 5216.39 858.176 5199.18V4621.53C858.176 4619.3 859.07 4617.21 860.858 4615.26L924.168 4545.03C926.135 4542.94 928.997 4541.89 932.752 4541.89H1028.79ZM981.039 4631.43C973.349 4631.43 967.09 4633.32 962.261 4637.08V4666.13C967.09 4669.9 973.349 4671.78 981.039 4671.78C988.73 4671.78 994.989 4669.9 999.818 4666.13V4637.08C994.989 4633.32 988.73 4631.43 981.039 4631.43Z" fill="url(#paint6_linear_1923_235)"/>
<path fill-rule="evenodd" clip-rule="evenodd" d="M2038.76 4541.89C2042.69 4541.89 2045.55 4542.94 2047.34 4545.03L2111.19 4615.26C2112.98 4617.21 2113.87 4619.3 2113.87 4621.53V5106.45C2079.48 5131.54 2042.35 5155.38 2002.27 5177.4V4736.92H1979.74V5189.42C1944.73 5207.55 1907.57 5224.28 1868.14 5239.26V4621.53C1868.14 4619.3 1869.04 4617.21 1870.83 4615.26L1934.13 4545.03C1936.1 4542.94 1938.96 4541.89 1942.72 4541.89H2038.76ZM1991.01 4631.43C1983.32 4631.43 1977.06 4633.32 1972.23 4637.08V4666.13C1977.06 4669.9 1983.32 4671.78 1991.01 4671.78C1998.7 4671.78 2004.96 4669.9 2009.78 4666.13V4637.08C2004.96 4633.32 1998.7 4631.43 1991.01 4631.43Z" fill="url(#paint7_linear_1923_235)"/>
<path fill-rule="evenodd" clip-rule="evenodd" d="M752.466 4541.89C757.116 4541.89 760.693 4542.8 763.197 4544.61L824.897 4592.27C826.864 4593.66 828.116 4594.85 828.652 4595.82C829.189 4596.8 829.457 4598.4 829.457 4600.63V4657.9C829.457 4659.71 827.937 4661.8 824.897 4664.17L787.877 4693.02L781.975 4697.2L798.607 4716.64L832.14 4766.81C833.034 4768.06 833.571 4769.31 833.75 4770.57C834.107 4771.68 834.286 4773.15 834.286 4774.96V5187.09C798.97 5168.66 765.834 5148.82 734.761 5127.92L734.762 4783.25L698.009 4742.77H693.449V5098.66C652.395 5068.06 615.306 5035.71 581.853 5002.62V4547.12C581.853 4543.63 584.088 4541.89 588.559 4541.89H752.466ZM705.521 4631.19C698.367 4631.19 692.466 4633 687.816 4636.63V4666.23C692.466 4669.85 698.367 4671.66 705.521 4671.66C712.853 4671.66 718.755 4669.85 723.226 4666.23V4636.63C718.755 4633 712.853 4631.19 705.521 4631.19Z" fill="url(#paint8_linear_1923_235)"/>
<path d="M2264.1 4541.89C2268.39 4541.89 2271.97 4543.01 2274.83 4545.24L2320.16 4580.56H2332.5L2377.84 4545.24C2380.7 4543.01 2384.28 4541.89 2388.57 4541.89H2447.59C2451.7 4541.89 2455.28 4543.01 2458.32 4545.24L2501.45 4578.85C2486.42 4622.83 2456.48 4698.46 2404.67 4785.02V4642.85H2382.13V4821.15C2351.61 4868.13 2314.75 4917.35 2270.53 4965.8V4642.85H2248V4989.74C2214.74 5024.02 2177.67 5057.65 2136.4 5089.52V4595.4C2136.4 4592.2 2137.83 4589.41 2140.7 4587.04L2194.35 4545.24C2197.39 4543.01 2200.97 4541.89 2205.08 4541.89H2264.1Z" fill="url(#paint9_linear_1923_235)"/>
<path d="M534.61 4541.89C539.08 4541.89 541.316 4543.63 541.316 4547.12V4620.28C541.316 4623.76 539.08 4625.5 534.61 4625.5H424.354C421.85 4625.5 419.704 4626.2 417.916 4627.59C416.127 4628.85 415.233 4630.45 415.233 4632.4V4712.27C415.233 4714.08 416.127 4715.68 417.916 4717.08C419.704 4718.47 421.85 4719.17 424.354 4719.17H462.179V4703.02L439.913 4702.6C435.442 4702.6 433.207 4700.86 433.207 4697.38V4645.12C433.207 4641.64 435.442 4639.89 439.913 4639.89H553.924C558.395 4639.89 560.631 4641.64 560.631 4645.12V4981.03C412.466 4826.02 341.224 4659.65 313.882 4582.4L361.581 4545.24C364.621 4543.01 368.198 4541.89 372.311 4541.89H534.61Z" fill="url(#paint10_linear_1923_235)"/>
<path d="M2875.78 324.612L2214.73 2994.64L3447.19 1528.26L2875.78 324.612Z" fill="url(#paint11_linear_1923_235)"/>
<path d="M3048.46 2310.42L2254.65 3025.74L3869.2 2417.18L3048.46 2310.42Z" fill="url(#paint12_linear_1923_235)"/>
<defs>
<linearGradient id="paint0_linear_1923_235" x1="2887.87" y1="324.654" x2="2887.87" y2="5451.81" gradientUnits="userSpaceOnUse">
<stop stop-color="#022D4B"/>
<stop offset="1" stop-color="#13062D"/>
</linearGradient>
<linearGradient id="paint1_linear_1923_235" x1="109.711" y1="1290.08" x2="2310.55" y2="5102.04" gradientUnits="userSpaceOnUse">
<stop stop-color="#F03B3E"/>
<stop offset="0.764423" stop-color="#EF2178"/>
</linearGradient>
<linearGradient id="paint2_linear_1923_235" x1="1395.18" y1="3404.25" x2="1395.18" y2="5320.2" gradientUnits="userSpaceOnUse">
<stop stop-color="#FDFDFD"/>
<stop offset="1" stop-color="#9BB9E1"/>
</linearGradient>
<linearGradient id="paint3_linear_1923_235" x1="1395.18" y1="4537.58" x2="1395.18" y2="5320.2" gradientUnits="userSpaceOnUse">
<stop stop-color="#FDFDFD"/>
<stop offset="1" stop-color="#9BB9E1"/>
</linearGradient>
<linearGradient id="paint4_linear_1923_235" x1="1395.18" y1="4537.58" x2="1395.18" y2="5320.2" gradientUnits="userSpaceOnUse">
<stop stop-color="#FDFDFD"/>
<stop offset="1" stop-color="#9BB9E1"/>
</linearGradient>
<linearGradient id="paint5_linear_1923_235" x1="1395.18" y1="4537.58" x2="1395.18" y2="5320.2" gradientUnits="userSpaceOnUse">
<stop stop-color="#FDFDFD"/>
<stop offset="1" stop-color="#9BB9E1"/>
</linearGradient>
<linearGradient id="paint6_linear_1923_235" x1="1395.18" y1="4537.58" x2="1395.18" y2="5320.2" gradientUnits="userSpaceOnUse">
<stop stop-color="#FDFDFD"/>
<stop offset="1" stop-color="#9BB9E1"/>
</linearGradient>
<linearGradient id="paint7_linear_1923_235" x1="1395.18" y1="4537.58" x2="1395.18" y2="5320.2" gradientUnits="userSpaceOnUse">
<stop stop-color="#FDFDFD"/>
<stop offset="1" stop-color="#9BB9E1"/>
</linearGradient>
<linearGradient id="paint8_linear_1923_235" x1="1395.18" y1="4537.58" x2="1395.18" y2="5320.2" gradientUnits="userSpaceOnUse">
<stop stop-color="#FDFDFD"/>
<stop offset="1" stop-color="#9BB9E1"/>
</linearGradient>
<linearGradient id="paint9_linear_1923_235" x1="1395.18" y1="4537.58" x2="1395.18" y2="5320.2" gradientUnits="userSpaceOnUse">
<stop stop-color="#FDFDFD"/>
<stop offset="1" stop-color="#9BB9E1"/>
</linearGradient>
<linearGradient id="paint10_linear_1923_235" x1="1395.18" y1="4537.58" x2="1395.18" y2="5320.2" gradientUnits="userSpaceOnUse">
<stop stop-color="#FDFDFD"/>
<stop offset="1" stop-color="#9BB9E1"/>
</linearGradient>
<linearGradient id="paint11_linear_1923_235" x1="109.711" y1="1290.08" x2="2310.55" y2="5102.04" gradientUnits="userSpaceOnUse">
<stop stop-color="#F03B3E"/>
<stop offset="0.764423" stop-color="#EF2178"/>
</linearGradient>
<linearGradient id="paint12_linear_1923_235" x1="109.711" y1="1290.08" x2="2310.55" y2="5102.04" gradientUnits="userSpaceOnUse">
<stop stop-color="#F03B3E"/>
<stop offset="0.764423" stop-color="#EF2178"/>
</linearGradient>
</defs>
</svg>
