<svg width="2014" height="2014" viewBox="0 0 2014 2014" fill="none" xmlns="http://www.w3.org/2000/svg">
<path d="M888.598 1350.58C893.879 1350.58 898.814 1351.88 902.034 1354.49V1375.81C898.814 1378.42 893.879 1379.72 888.598 1379.72C883.446 1379.72 878.512 1378.42 875.163 1375.81V1354.49C878.512 1351.88 883.446 1350.58 888.598 1350.58Z" fill="white"/>
<path d="M699.583 1350.68C705.122 1350.68 709.63 1352.04 713.107 1354.75V1375.67C709.63 1378.38 705.122 1379.74 699.583 1379.74C694.045 1379.74 689.537 1378.38 686.059 1375.67V1354.75C689.537 1352.04 694.045 1350.68 699.583 1350.68Z" fill="white"/>
<path d="M1426.96 1350.68C1432.5 1350.68 1437 1352.04 1440.48 1354.75V1375.67C1437 1378.38 1432.5 1379.74 1426.96 1379.74C1421.42 1379.74 1416.91 1378.38 1413.43 1375.67V1354.75C1416.91 1352.04 1421.42 1350.68 1426.96 1350.68Z" fill="white"/>
<path d="M501.156 1350.51C506.437 1350.51 510.687 1351.81 513.907 1354.42V1375.74C510.687 1378.35 506.437 1379.65 501.156 1379.65C496.004 1379.65 491.754 1378.35 488.405 1375.74V1354.42C491.754 1351.81 496.004 1350.51 501.156 1350.51Z" fill="white"/>
<path fill-rule="evenodd" clip-rule="evenodd" d="M1802.45 390.368C1618.33 152.89 1330.28 0.0352117 1006.54 0.0351562C682.788 0.0351562 394.74 152.891 210.625 390.368H0.0351562V981.525L0.318593 982.525C0.131755 990.506 0.0365629 998.509 0.0365629 1006.54C0.0365629 1562.41 450.662 2013.04 1006.54 2013.04C1562.41 2013.04 2013.04 1562.41 2013.04 1006.54C2013.04 998.507 2012.94 990.5 2012.75 982.517L2013.03 981.524V390.368H1802.45ZM998.031 1286.19C994.811 1286.19 993.202 1287.45 993.202 1289.96V1845.04C996.943 1845.09 1000.7 1845.13 1004.48 1845.14L1008.31 1845.14C1053.76 1845.14 1096.72 1842.45 1137.33 1837.43V1430.41C1137.33 1427.9 1135.72 1426.65 1132.5 1426.65H1073.57V1414.15H1132.5C1135.72 1414.15 1137.33 1412.9 1137.33 1410.39V1362.67C1137.33 1360.16 1135.72 1358.9 1132.5 1358.9H1073.57V1346.41H1132.5C1135.72 1346.41 1137.33 1345.15 1137.33 1342.65V1289.96C1137.33 1287.45 1135.72 1286.19 1132.5 1286.19H998.031ZM808.227 1286.19C805.007 1286.19 803.397 1287.45 803.397 1289.96V1824.91C829.122 1830.27 855.9 1834.67 883.768 1837.98V1463.28H927.625C930.587 1463.28 933.164 1462.43 935.353 1460.72L973.993 1430.61C976.182 1429.01 977.277 1427 977.277 1424.59V1324.73C977.277 1322.42 976.182 1320.42 973.993 1318.71L935.353 1288.6C933.164 1287 930.587 1286.19 927.625 1286.19H808.227ZM1246.57 1286.19C1243.35 1286.19 1241.74 1287.45 1241.74 1289.96V1400.36C1241.74 1402.46 1240.97 1404.07 1239.42 1405.17L1210.83 1427.45C1209.54 1428.56 1208.9 1430.06 1208.9 1431.97V1825.77C1249.25 1817.54 1287 1806.93 1322.31 1794.38V1289.96C1322.31 1287.45 1320.7 1286.19 1317.48 1286.19H1246.57ZM664.807 1286.19C662.102 1286.19 660.042 1286.95 658.625 1288.45L613.03 1339.03C611.742 1340.44 611.098 1341.94 611.098 1343.55V1759.57C636.376 1771.96 663.14 1783.35 691.469 1793.5V1426.65H707.697V1799.11C733.239 1807.65 760.012 1815.19 788.069 1821.57V1343.55C788.069 1341.94 787.425 1340.44 786.137 1339.03L740.155 1288.45C738.868 1286.95 736.807 1286.19 733.973 1286.19H664.807ZM1392.18 1286.19C1389.48 1286.19 1387.42 1286.95 1386 1288.45L1340.4 1339.03C1339.12 1340.44 1338.47 1341.94 1338.47 1343.55V1788.44C1366.87 1777.64 1393.63 1765.59 1418.84 1752.54V1426.65H1435.07V1743.88C1463.93 1728.02 1490.68 1710.86 1515.44 1692.78V1343.55C1515.44 1341.94 1514.8 1340.44 1513.51 1339.03L1467.53 1288.45C1466.24 1286.95 1464.18 1286.19 1461.35 1286.19H1392.18ZM416.92 1286.19C413.701 1286.19 412.091 1287.45 412.091 1289.96V1618.01C436.184 1641.84 462.895 1665.14 492.462 1687.18V1430.86H495.747L522.215 1460.02V1708.25C544.593 1723.3 568.458 1737.59 593.892 1750.87V1454.05C593.892 1452.74 593.763 1451.69 593.506 1450.88C593.377 1449.98 592.99 1449.08 592.346 1448.18L568.197 1412.05L556.218 1398.04L560.469 1395.03L587.13 1374.26C589.319 1372.55 590.414 1371.05 590.414 1369.74V1328.5C590.414 1326.89 590.221 1325.74 589.835 1325.03C589.449 1324.33 588.547 1323.48 587.13 1322.47L542.694 1288.15C540.891 1286.85 538.315 1286.19 534.966 1286.19H416.92ZM1581.13 1286.19C1578.17 1286.19 1575.59 1287 1573.4 1288.6L1534.76 1318.71C1532.7 1320.42 1531.67 1322.42 1531.67 1324.73V1680.59C1561.39 1657.64 1588.09 1633.42 1612.04 1608.73V1358.9H1628.27V1591.49C1660.12 1556.6 1686.66 1521.14 1708.64 1487.31V1358.9H1724.87V1461.29C1762.19 1398.95 1783.75 1344.48 1794.58 1312.81L1763.51 1288.6C1761.32 1287 1758.75 1286.19 1755.78 1286.19H1713.28C1710.19 1286.19 1707.61 1287 1705.55 1288.6L1672.9 1314.04H1664.01L1631.36 1288.6C1629.3 1287 1626.73 1286.19 1623.64 1286.19H1581.13ZM261.18 1286.19C258.218 1286.19 255.642 1287 253.452 1288.6L219.101 1315.37C238.793 1371 290.099 1490.82 396.807 1602.46V1360.54C396.807 1358.03 395.197 1356.77 391.977 1356.77H309.866C306.646 1356.77 305.036 1358.03 305.036 1360.54V1398.17C305.036 1400.68 306.647 1401.94 309.866 1401.94L325.902 1402.24V1413.87H298.661C296.857 1413.87 295.312 1413.36 294.024 1412.36C292.736 1411.36 292.092 1410.2 292.092 1408.9V1351.38C292.092 1349.97 292.736 1348.82 294.024 1347.91C295.312 1346.91 296.858 1346.41 298.661 1346.41H378.066C381.286 1346.41 382.896 1345.15 382.896 1342.65V1289.96C382.896 1287.45 381.286 1286.19 378.066 1286.19H261.18ZM1093.54 621.969V462.387H1941.01V971.528L1940.14 974.37C1939.55 976.195 1938.64 978.87 1937.35 982.273C1934.77 989.081 1930.69 998.803 1924.69 1010.47C1912.69 1033.8 1892.99 1064.9 1862.2 1096C1800.62 1158.22 1694.68 1220.4 1517.28 1220.4C1339.87 1220.4 1233.93 1158.21 1172.35 1096C1141.56 1064.9 1121.86 1033.8 1109.86 1010.47C1103.86 998.803 1099.78 989.081 1097.2 982.273C1095.92 978.87 1095 976.195 1094.41 974.37L1093.54 971.528V743.391H919.532V971.528L918.659 974.37C918.067 976.195 917.154 978.87 915.865 982.273C913.288 989.081 909.21 998.803 903.21 1010.47C891.208 1033.8 871.51 1064.9 840.721 1096C779.135 1158.22 673.198 1220.4 495.794 1220.4C318.389 1220.4 212.452 1158.22 150.867 1096C120.078 1064.9 100.379 1033.8 88.3773 1010.47C82.3764 998.803 78.299 989.081 75.7219 982.273C74.4333 978.87 73.5201 976.195 72.9283 974.37L72.0548 971.528V462.387H919.532V621.969H1093.54Z" fill="white"/>
</svg>
